<svg width="366" height="418" viewBox="0 0 366 418" fill="none" xmlns="http://www.w3.org/2000/svg">
<path d="M0 0L32.9235 375.095L182.975 418L332.428 375.095L366 0H0ZM296.811 88.9757L294.416 112.689L293.568 122.486H118.275L122.366 169.813H289.528L287.881 182.021L277.306 303.703L276.458 311.842L183.175 337.766V337.917H182.576L182.426 337.967V337.917H182.376L88.295 311.792L82.6081 239.144H128.053L131.295 275.92L182.376 289.837H182.576L233.458 275.97L239.145 216.385H182.426V216.335H80.2137L68.8401 88.9757L67.9921 76.7673H297.609L296.811 88.9757V88.9757Z" fill="white" fill-opacity="0.85"/>
</svg>
