<svg width="472" height="418" viewBox="0 0 472 418" fill="none" xmlns="http://www.w3.org/2000/svg">
<path d="M290.59 302.851C278.649 319.705 265.637 335.785 251.632 350.994C288.918 386.918 323.616 403.74 342.839 392.695C362.106 381.672 364.76 343.446 352.071 293.444C333.049 297.649 312.377 300.837 290.59 302.851V302.851ZM261.377 304.776C244.466 305.471 227.534 305.471 210.623 304.776C219.03 315.667 227.526 325.76 236 334.968C244.474 325.76 252.948 315.667 261.377 304.776ZM373.769 130.046C433.198 146.957 472 175.068 472 209C472 242.932 433.198 271.043 373.769 287.954C388.71 347.496 383.603 394.909 354.011 411.864C324.397 428.841 280.466 409.54 236 366.931C191.534 409.54 147.603 428.841 117.989 411.864C88.3969 394.909 83.2679 347.496 98.2311 287.954C38.8018 271.043 0 242.932 0 209C0 175.068 38.8018 146.957 98.2311 130.046C83.2902 70.5036 88.3969 23.0913 117.989 6.13617C147.603 -10.8411 191.534 8.4603 236 51.0694C280.466 8.4603 324.397 -10.8411 354.011 6.13617C383.603 23.0913 388.732 70.5036 373.769 130.046V130.046ZM352.071 124.556C364.782 74.5322 362.106 36.3278 342.861 25.3047C323.616 14.2596 288.918 31.0819 251.655 67.0064C265.644 82.2223 278.648 98.3021 290.59 115.149C312.4 117.141 333.049 120.329 352.071 124.556ZM119.929 293.444C107.218 343.468 109.894 381.672 129.139 392.695C148.384 403.74 183.082 386.918 220.345 350.994C206.348 335.784 193.344 319.704 181.41 302.851C160.735 301.016 140.2 297.874 119.929 293.444V293.444ZM210.623 113.223C227.534 112.529 244.466 112.529 261.377 113.223C253.361 102.808 244.894 92.7424 236 83.054C227.526 92.262 219.052 102.355 210.623 113.246V113.223ZM181.41 115.149C193.358 98.2946 206.378 82.2143 220.39 67.0064C183.082 31.0819 148.361 14.2596 129.161 25.3047C109.894 36.3278 107.24 74.5543 119.929 124.556C138.951 120.351 159.623 117.163 181.41 115.149V115.149ZM278.236 281.602C294.11 258.479 308.221 234.211 320.45 209C308.221 183.789 294.11 159.521 278.236 136.398C250.118 134.309 221.882 134.309 193.764 136.398C177.89 159.521 163.779 183.789 151.55 209C163.779 234.211 177.89 258.479 193.764 281.602C221.882 283.691 250.118 283.691 278.236 281.602V281.602ZM306.869 278.702C320.584 276.931 333.629 274.651 345.894 271.973C341.883 259.484 337.33 247.173 332.246 235.075C324.397 249.951 315.93 264.498 306.869 278.68V278.702ZM165.131 139.276C151.416 141.047 138.371 143.327 126.106 146.005C129.897 157.869 134.446 170.22 139.754 182.903C147.603 168.027 156.07 153.48 165.131 139.298V139.276ZM126.106 271.951C138.371 274.629 151.416 276.887 165.131 278.68C156.07 264.498 147.603 249.951 139.754 235.075C134.668 247.165 130.115 259.468 126.106 271.951V271.951ZM104.297 266.528C110.117 248.068 117.677 228.722 126.82 208.978C118.093 190.287 110.57 171.065 104.297 151.428C54.3003 165.528 22.2999 186.932 22.2999 208.978C22.2999 231.024 54.3003 252.428 104.297 266.528ZM345.894 146.005C332.988 143.212 319.968 140.967 306.869 139.276C315.93 153.457 324.397 168.005 332.246 182.881C337.554 170.22 342.103 157.869 345.894 146.005V146.005ZM367.703 151.428C361.883 169.888 354.323 189.234 345.18 208.978C354.323 228.722 361.883 248.068 367.703 266.528C417.7 252.428 449.7 231.024 449.7 208.978C449.7 186.932 417.7 165.528 367.703 151.428ZM236 250.613C230.494 250.613 225.043 249.537 219.956 247.445C214.87 245.354 210.248 242.289 206.355 238.425C202.462 234.561 199.374 229.973 197.267 224.925C195.161 219.876 194.076 214.465 194.076 209C194.076 203.535 195.161 198.124 197.267 193.075C199.374 188.027 202.462 183.439 206.355 179.575C210.248 175.711 214.87 172.646 219.956 170.554C225.043 168.463 230.494 167.387 236 167.387C247.119 167.387 257.782 171.771 265.645 179.575C273.507 187.379 277.924 197.964 277.924 209C277.924 220.036 273.507 230.621 265.645 238.425C257.782 246.229 247.119 250.613 236 250.613V250.613Z" fill="white" fill-opacity="0.85"/>
</svg>
