<svg width="387" height="418" viewBox="0 0 387 418" fill="none" xmlns="http://www.w3.org/2000/svg">
<path fill-rule="evenodd" clip-rule="evenodd" d="M386.253 111.968L193.33 0L0.407227 111.968V306.031L30.2658 323.36L91.3185 298.799C99.5344 295.49 106.57 289.817 111.525 282.507C116.479 275.197 119.127 266.583 119.129 257.767V105.681H148.81V257.767C148.807 272.463 144.394 286.823 136.134 299.009C127.875 311.195 116.145 320.65 102.449 326.164L62.6769 342.164L193.33 418L386.253 306.061V111.968ZM178.49 164.72C178.49 149.062 184.744 134.045 195.876 122.973C207.009 111.901 222.107 105.681 237.851 105.681H272.488C302.525 105.681 326.892 129.887 326.892 159.791V164.72H297.212V159.791C297.212 156.561 296.572 153.364 295.33 150.38C294.087 147.397 292.266 144.686 289.97 142.403C287.675 140.119 284.949 138.308 281.95 137.072C278.95 135.837 275.735 135.201 272.488 135.201H237.851C229.979 135.201 222.43 138.311 216.864 143.847C211.298 149.383 208.171 156.891 208.171 164.72C208.171 172.549 211.298 180.058 216.864 185.594C222.43 191.13 229.979 194.24 237.851 194.24H267.531C283.275 194.24 298.374 200.46 309.506 211.532C320.638 222.604 326.892 237.621 326.892 253.28C326.892 268.938 320.638 283.955 309.506 295.027C298.374 306.099 283.275 312.319 267.531 312.319H237.851C222.107 312.319 207.009 306.099 195.876 295.027C184.744 283.955 178.49 268.938 178.49 253.28H208.171C208.171 261.109 211.298 268.617 216.864 274.153C222.43 279.689 229.979 282.799 237.851 282.799H267.531C275.403 282.799 282.953 279.689 288.519 274.153C294.085 268.617 297.212 261.109 297.212 253.28C297.212 245.451 294.085 237.942 288.519 232.406C282.953 226.87 275.403 223.76 267.531 223.76H237.851C222.107 223.76 207.009 217.54 195.876 206.468C184.744 195.396 178.49 180.379 178.49 164.72Z" fill="white" fill-opacity="0.85"/>
</svg>
