<svg width="418" height="418" viewBox="0 0 418 418" fill="none" xmlns="http://www.w3.org/2000/svg">
<path d="M413.02 407.827L404.326 399.395C400.181 393.806 395.547 388.611 390.482 383.873L390.396 383.804C385.285 379.077 379.974 374.583 374.464 370.32C370.048 367.231 363.979 363.509 356.255 359.154C349.988 356.322 344.992 351.2 342.256 344.8L342.188 344.625L341.367 344.207C344.995 343.841 348.315 343.162 351.498 342.204L351.104 342.308L360.859 339.573C364.897 338.284 369.569 337.448 374.412 337.257H374.515C379.615 337.047 384.424 336.211 389.01 334.835L388.582 334.94C390.796 334.382 393.072 333.749 395.41 333.041C397.749 332.332 399.751 331.699 401.417 331.142V328.198C399.763 325.678 397.761 322.798 395.41 319.557C393.231 316.526 390.683 313.787 387.829 311.405L387.744 311.335C380.567 304.878 373.135 298.63 365.445 292.591C358.236 286.889 350.748 281.563 343.009 276.634L341.846 275.937C337.383 272.967 332.656 270.43 327.727 268.359L327.145 268.15C322.034 266.036 316.997 263.719 312.034 261.199C310.247 260.308 308.371 259.613 306.438 259.126L306.25 259.091C304.32 258.7 302.573 257.664 301.287 256.147L301.27 256.13C298.842 252.849 296.803 249.288 295.195 245.521L295.058 245.172C293.404 241.235 291.612 237.455 289.684 233.832C285.543 225.679 281.538 217.393 277.671 208.973C273.803 200.553 270.09 192.122 266.53 183.678C264.054 178.057 261.778 172.442 259.702 166.833C257.602 161.115 254.96 155.619 251.813 150.423L252.035 150.824C245.216 138.922 237.605 127.508 229.257 116.662L229.736 117.324C222.098 107.476 213.752 98.2176 204.768 89.6258L204.631 89.5038C195.796 81.0658 186.47 73.1775 176.702 65.8818L175.864 65.2721C165.641 57.7116 154.461 50.2673 142.322 42.9392C137.162 39.8756 131.602 37.5706 125.807 36.093L125.362 35.9884L106.315 31.1456L95.5508 30.3094C91.9684 30.0307 88.3803 29.8913 84.7865 29.8913C82.363 28.6002 80.1329 26.9636 78.1637 25.031C76.2603 23.188 74.2425 21.4714 72.1227 19.892L71.9516 19.7701C60.8351 13.2402 49.1269 7.81488 36.989 3.5691L35.5344 3.11617C32.5157 1.35813 29.1472 0.313802 25.6783 0.0605009C22.2094 -0.1928 18.729 0.351416 15.4947 1.65286L15.6487 1.60059C12.4639 2.87196 9.59351 4.8424 7.24197 7.37163C4.89042 9.90086 3.11553 12.9267 2.04364 16.2337L1.9923 16.4079C0.176287 20.8472 -0.413722 25.7071 0.286005 30.4628C0.985732 35.2185 2.9486 39.6893 5.96259 43.3921L5.92837 43.3398C12.1348 51.7597 16.8923 58.3794 20.2009 63.1991C22.6766 66.5786 25.2322 70.0917 27.8676 73.7384C30.2806 77.0134 32.4198 80.7588 34.1482 84.7132L34.2851 85.0791C35.2435 87.1521 36.082 89.6258 36.6981 92.1692L36.7495 92.4479C37.2971 94.8403 37.9873 97.4417 38.8202 100.252C41.2959 106.709 43.6404 113.329 45.8537 120.111C48.2667 127.515 50.9364 133.786 54.0339 139.762L53.7088 139.065C55.363 142.154 57.023 145.174 58.6887 148.123C60.3544 151.073 62.1456 153.953 64.0623 156.764C65.1492 158.433 66.5512 159.866 68.1866 160.98L68.238 161.015C69.095 161.64 69.8008 162.457 70.3019 163.401C70.803 164.346 71.0862 165.394 71.1301 166.467V166.485C69.111 169.538 67.8378 173.038 67.4165 176.693L67.3994 176.797C66.8625 180.901 65.9866 184.951 64.7811 188.905L64.918 188.382C60.8923 200.928 58.8645 214.049 58.9112 227.247C58.9112 231.741 59.1337 236.166 59.5957 240.539L59.5444 239.999C60.5712 256.687 65.5169 272.017 73.4404 285.292L73.2008 284.856C76.5721 289.995 80.1831 294.472 84.1705 298.566C86.4869 301.218 89.6075 303.007 93.0367 303.648C96.4658 304.288 100.007 303.744 103.098 302.102L103.012 302.137C105.978 301.073 108.565 299.135 110.446 296.569C112.326 294.004 113.414 290.927 113.571 287.73V287.696C114.393 279.438 115.625 272.052 117.319 264.84L117.096 266.007C117.53 264.832 117.75 263.587 117.747 262.331L117.713 261.548V261.582C117.576 260.317 118.334 259.12 119.989 257.994V258.83C121.643 262.767 123.366 266.698 125.157 270.624C126.948 274.549 128.808 278.48 130.736 282.417C135.784 290.239 141.141 297.068 147.028 303.356L146.976 303.304C152.833 309.742 159.292 315.582 166.263 320.742L166.64 321.003C170.268 323.825 173.451 326.874 176.326 330.201L176.394 330.271C179.098 333.511 182.332 336.176 185.978 338.18L186.149 338.267V337.849H186.97C186.321 336.369 185.247 335.124 183.89 334.278L183.856 334.26C182.6 333.556 181.394 332.764 180.245 331.891L180.33 331.943C177.854 329.423 175.299 326.613 172.663 323.512C170.028 320.411 167.615 317.461 165.425 314.662C159.629 306.51 154.101 297.991 148.842 289.107C143.582 280.222 138.614 271.193 133.936 262.018C131.723 257.523 129.584 252.89 127.519 248.116C125.453 243.343 123.451 238.709 121.512 234.215C120.634 232.388 120.078 230.419 119.869 228.397V228.309C119.823 227.353 119.534 226.424 119.03 225.615C118.526 224.806 117.824 224.144 116.994 223.693L116.96 223.676C115 227.104 112.657 230.29 109.977 233.17L109.994 233.152C107.246 236.101 105.033 239.521 103.457 243.256L103.372 243.483C100.81 249.916 99.1453 256.683 98.4259 263.586L98.3916 263.917C97.5702 271.361 96.743 279.014 95.9102 286.877L95.0888 287.295L94.678 287.713C92.5358 287.276 90.517 286.355 88.7698 285.02C87.0226 283.685 85.5914 281.968 84.5812 279.996L84.547 279.909C82.4705 275.832 80.6109 271.826 78.968 267.889C74.485 255.949 72.0369 243.318 71.7291 230.539V230.382C70.8402 216.728 72.501 203.027 76.6235 190.002L76.4181 190.769C77.2396 187.679 79.0308 182.476 81.7917 175.16C84.5527 167.843 85.106 162.786 83.4517 159.987C82.6354 157.217 81.0627 154.74 78.9167 152.844L78.8996 152.827C76.8541 151.024 74.9382 149.073 73.1666 146.991L73.1153 146.921C71.1872 144.088 69.3275 141.068 67.5363 137.863C65.7451 134.657 64.1593 131.499 62.7788 128.386C59.5921 120.71 56.8829 112.838 54.6671 104.816L54.2906 103.266C51.8556 94.3023 48.7314 85.5477 44.9467 77.0831L45.3917 78.198C43.6212 74.0616 41.3812 70.1502 38.7175 66.5438L38.8202 66.6831C36.0364 62.8971 33.5493 59.3143 31.3588 55.9348C28.575 52.2881 25.814 48.775 23.0759 45.3954C20.2226 41.8776 17.7765 38.0373 15.7856 33.9502L15.6316 33.6018C14.756 31.782 14.0733 29.8724 13.5951 27.9054L13.5609 27.7137C13.2669 26.7241 13.1896 25.6809 13.3345 24.6576C13.4794 23.6342 13.8429 22.6557 14.3995 21.7908L14.3823 21.8257C14.5653 20.8837 14.9972 20.0103 15.6316 19.2997C16.3245 18.6693 17.1687 18.2366 18.0788 18.0454H18.113C19.4633 17.154 21.0154 16.6299 22.6213 16.5232C24.2272 16.4165 25.8332 16.7306 27.2858 17.4357L27.2344 17.4183C30.9823 18.4984 34.0113 19.5784 36.9719 20.8153L36.3558 20.5888C41.5925 22.8418 46.4242 25.0194 50.8508 27.1215C55.9506 29.5951 60.2974 32.2082 64.4046 35.1174L64.0965 34.9084C66.3099 36.3136 68.5175 37.8582 70.7194 39.5422C72.9213 41.2262 75.2658 42.9159 77.753 44.6115H83.5544C87.9696 44.6115 92.6587 44.8264 97.6215 45.2561C102.636 45.6567 107.273 46.6149 111.689 48.113L111.278 47.9911C119.509 50.4822 126.577 53.4262 133.286 56.9626L132.584 56.6316C139.35 60.1389 145.767 63.861 151.837 67.7981C161.916 74.1913 170.627 80.7414 178.824 87.9012L178.533 87.6573C187.09 95.1132 194.859 102.761 202.15 110.844L202.321 111.053C209.44 118.962 216.234 127.55 222.446 136.556L222.977 137.375C228.692 145.597 234.46 155.109 239.645 164.969L240.364 166.45C241.892 169.473 243.229 172.591 244.368 175.787L244.556 176.362C245.663 179.59 246.901 182.9 248.27 186.291C251.305 193.318 254.556 200.408 258.025 207.562C261.493 214.716 264.745 221.672 267.779 228.431L276.884 248.656C280.084 255.729 283.66 261.826 287.819 267.453L287.631 267.192C291.105 270.972 295.742 273.62 300.945 274.543L301.082 274.561C307.379 276.163 312.685 277.975 317.819 280.118L317.014 279.822C319.461 280.954 322.61 282.156 325.845 283.219L326.529 283.41C330.157 284.542 333.306 286.041 336.198 287.922L336.044 287.835C341.64 291.023 346.381 294.159 350.899 297.573L350.539 297.312C355.228 300.819 359.917 304.129 364.606 307.241C366.82 308.925 370.533 311.381 375.747 314.61C380.961 317.839 383.722 320.858 384.03 323.669C373.545 323.299 363.048 323.806 352.644 325.184L353.603 325.08C344.914 326.228 336.407 328.512 328.292 331.874L328.977 331.63C326.826 332.558 324.605 333.31 322.337 333.877L322.011 333.947C320.833 334.119 319.744 334.688 318.92 335.562C318.095 336.436 317.581 337.566 317.459 338.772V338.79C318.503 340.113 319.342 341.646 319.906 343.319L319.941 343.423C320.523 345.2 321.224 346.733 322.08 348.162L322.029 348.057C324.065 351.733 326.255 354.903 328.72 357.83L328.651 357.743C331.064 360.774 333.785 363.405 336.797 365.652L336.917 365.739C339.701 367.992 342.599 370.309 345.611 372.69C348.366 374.885 351.481 377.045 354.715 378.996L355.126 379.222C359.986 382.253 365.633 385.145 371.52 387.567L372.307 387.845C378.708 390.458 384.201 393.49 389.301 397.096L389.027 396.904C392.347 398.867 395.656 401.044 398.953 403.437C402.25 405.829 405.422 408.146 408.468 410.387C409.717 411.642 410.812 413.035 411.737 414.551L411.788 414.638C413.366 416.491 415.559 417.688 417.949 418H418V417.164C416.487 415.998 415.382 414.367 414.851 412.513L414.834 412.443C414.442 410.766 413.796 409.161 412.917 407.687L412.952 407.757L413.02 407.827ZM95.123 73.268C92.9097 73.268 90.839 73.3377 88.9109 73.4771C87.0297 73.6002 85.172 73.9691 83.3833 74.5746L83.5373 74.5223V74.9404H84.3587C85.4654 76.6244 86.8573 78.5174 88.5344 80.6195C90.2115 82.7215 91.7288 84.7597 93.0865 86.734L99.7094 100.635L100.531 100.217C102.458 98.8052 103.953 96.8664 104.843 94.6254L104.878 94.5383C105.767 92.1169 106.281 89.2948 106.281 86.3682L106.264 85.4275V85.4797C105.488 84.7115 104.861 83.8014 104.416 82.797L104.398 82.7447L103.012 79.5742C102.125 78.1311 100.855 76.9719 99.35 76.2295L99.2986 76.2121C97.7609 75.4646 96.3511 74.4706 95.123 73.268V73.268Z" fill="white" fill-opacity="0.85"/>
</svg>
