<svg width="419" height="418" viewBox="0 0 419 418" fill="none" xmlns="http://www.w3.org/2000/svg">
<path d="M236.475 112.443L236.12 0H182.885L183.24 112.443L209.857 155.495L236.475 112.443ZM183.24 305.14V418H236.475V305.14L209.857 262.085L183.24 305.14Z" fill="white" fill-opacity="0.85"/>
<path d="M242.781 305.397L312.046 396.564L365.091 359.764L295.826 268.595L242.781 252.286V305.397ZM177.022 112.606L107.316 21.4362L54.2705 58.2386L123.538 149.406L177.022 165.717V112.606Z" fill="white" fill-opacity="0.85"/>
<path d="M127.297 151.427L19.9664 117.896L0.680664 175.264L108.011 209.201L158.741 193.04L127.297 151.427ZM260.62 224.956L292.065 266.568L399.395 300.101L418.681 242.732L311.351 209.201L260.62 224.956Z" fill="white" fill-opacity="0.85"/>
<path d="M311.351 209.201L418.681 175.264L399.395 117.896L292.065 151.427L260.62 193.04L311.351 209.201ZM108.011 209.201L0.680664 242.732L19.9664 300.101L127.297 266.568L158.741 224.956L108.011 209.201Z" fill="white" fill-opacity="0.85"/>
<path d="M123.538 268.595L54.2705 359.764L107.316 396.564L177.022 305.397V252.286L123.538 268.595ZM295.826 149.406L365.091 58.2386L312.046 21.4362L242.781 112.606V165.717L295.826 149.406Z" fill="white" fill-opacity="0.85"/>
</svg>
