<svg width="138" height="36" viewBox="0 0 138 36" fill="none" xmlns="http://www.w3.org/2000/svg">
<path d="M9.51573 25.5963C7.54172 25.5963 5.85833 25.196 4.46556 24.3955C3.08375 23.5949 2.03095 22.5421 1.30714 21.2371C0.58334 19.921 0.221436 18.5009 0.221436 16.9765V16.3678C0.221436 14.668 0.539472 13.1217 1.17554 11.7289C1.81161 10.3252 2.7712 9.21204 4.0543 8.38954C5.33741 7.55607 6.94952 7.13933 8.89063 7.13933C10.6124 7.13933 12.0819 7.49575 13.2993 8.20858C14.5166 8.91045 15.4487 9.9194 16.0958 11.2354C16.7538 12.5404 17.0828 14.1032 17.0828 15.9237V18.4076H2.44219V14.6077H11.2923V14.1306C11.3033 13.6152 11.2156 13.193 11.0291 12.864C10.8427 12.535 10.5631 12.2937 10.1902 12.1402C9.82829 11.9866 9.37865 11.9099 8.84128 11.9099C8.07361 11.9099 7.49786 12.1237 7.11402 12.5514C6.73019 12.9791 6.47247 13.5329 6.34087 14.2129C6.20927 14.8818 6.14347 15.6002 6.14347 16.3678V16.9765C6.14347 17.7661 6.29152 18.4515 6.58762 19.0327C6.88372 19.603 7.31143 20.0417 7.87073 20.3487C8.441 20.6558 9.12094 20.8094 9.91054 20.8094C10.6343 20.8094 11.3581 20.6832 12.0819 20.431C12.8167 20.1788 13.4363 19.7346 13.9408 19.0985L16.6057 22.5037C16.0574 23.2714 15.1691 23.9787 13.9408 24.6258C12.7235 25.2728 11.2485 25.5963 9.51573 25.5963Z" fill="#212322"/>
<path d="M24.9788 25.2673H19.0568V7.46833H24.6005L24.9788 11.2683V25.2673ZM22.9226 15.9401C22.9116 14.0538 23.1913 12.4582 23.7615 11.1531C24.3318 9.83714 25.1324 8.83917 26.1632 8.15924C27.2051 7.4793 28.4114 7.13933 29.7823 7.13933C30.8789 7.13933 31.844 7.35867 32.6775 7.79734C33.5109 8.236 34.1635 8.96529 34.635 9.98519C35.1176 11.0051 35.3588 12.3979 35.3588 14.1635V25.2673H29.4039V14.1471C29.4039 13.511 29.3107 13.0339 29.1243 12.7159C28.9488 12.3979 28.6856 12.184 28.3346 12.0744C27.9947 11.9647 27.5725 11.9099 27.068 11.9099C26.5416 11.9099 26.0974 12.0031 25.7355 12.1895C25.3846 12.365 25.0995 12.6282 24.8801 12.9791C24.6718 13.3191 24.5182 13.7303 24.4195 14.2129C24.3318 14.6954 24.2879 15.2328 24.2879 15.825L22.9226 15.9401Z" fill="#212322"/>
<path d="M53.0591 25.2673H39.241V20.4968H53.0591V25.2673ZM41.906 25.2673H37.8428V21.8951L48.8643 7.46835H52.944V10.7419L41.906 25.2673ZM51.0193 12.2389H38.1718V7.46835H51.0193V12.2389Z" fill="#212322"/>
<path d="M54.6877 16.2198C54.6877 14.4761 55.0167 12.9243 55.6747 11.5644C56.3327 10.1936 57.3033 9.11334 58.5864 8.32374C59.8695 7.53413 61.4487 7.13933 63.324 7.13933C65.2212 7.13933 66.8114 7.53413 68.0945 8.32374C69.3886 9.11334 70.3591 10.1936 71.0062 11.5644C71.6642 12.9243 71.9932 14.4761 71.9932 16.2198V16.5323C71.9932 18.2651 71.6642 19.8169 71.0062 21.1877C70.3591 22.5585 69.3941 23.6388 68.111 24.4284C66.8279 25.207 65.2432 25.5963 63.3569 25.5963C61.4706 25.5963 59.8804 25.207 58.5864 24.4284C57.3033 23.6388 56.3327 22.5585 55.6747 21.1877C55.0167 19.8169 54.6877 18.2651 54.6877 16.5323V16.2198ZM60.6262 16.5323C60.6262 17.3439 60.6975 18.0786 60.84 18.7366C60.9936 19.3837 61.2677 19.8936 61.6625 20.2665C62.0573 20.6394 62.6221 20.8258 63.3569 20.8258C64.0807 20.8258 64.64 20.6394 65.0348 20.2665C65.4296 19.8936 65.6983 19.3837 65.8409 18.7366C65.9944 18.0786 66.0712 17.3439 66.0712 16.5323V16.2198C66.0712 15.4302 65.9944 14.7119 65.8409 14.0648C65.6983 13.4068 65.4296 12.8859 65.0348 12.5021C64.64 12.1073 64.0697 11.9099 63.324 11.9099C62.6002 11.9099 62.0409 12.1073 61.6461 12.5021C61.2622 12.8859 60.9936 13.4068 60.84 14.0648C60.6975 14.7119 60.6262 15.4302 60.6262 16.2198V16.5323Z" fill="#212322"/>
<path d="M80.5308 25.2673H74.5923V0H80.5308V25.2673Z" fill="#212322"/>
<path d="M89.9896 25.2673H84.0511V7.46833H89.9896V25.2673ZM83.7221 2.96101C83.7221 2.08367 84.0237 1.37084 84.6269 0.822501C85.23 0.274165 86.0141 0 86.9792 0C87.9553 0 88.7394 0.274165 89.3316 0.822501C89.9347 1.37084 90.2363 2.08367 90.2363 2.96101C90.2363 3.82738 89.9347 4.54022 89.3316 5.09952C88.7394 5.64786 87.9553 5.92203 86.9792 5.92203C86.0141 5.92203 85.23 5.64786 84.6269 5.09952C84.0237 4.54022 83.7221 3.82738 83.7221 2.96101Z" fill="#212322"/>
<path d="M99.2016 25.2673H93.2631V7.46833H98.8233L99.2016 11.2683V25.2673ZM97.1453 15.9401C97.1344 14.2293 97.3866 12.7159 97.9021 11.3999C98.4175 10.0729 99.1852 9.03109 100.205 8.27438C101.236 7.51768 102.503 7.13933 104.005 7.13933C105.54 7.13933 106.785 7.62735 107.739 8.60339C108.693 9.56846 109.17 11.1641 109.17 13.3904V25.2673H103.232V14.2293C103.232 13.5494 103.155 13.0449 103.002 12.7159C102.859 12.3869 102.645 12.1731 102.36 12.0744C102.075 11.9647 101.724 11.9099 101.307 11.9099C100.869 11.9099 100.474 12.0031 100.123 12.1895C99.7719 12.365 99.4703 12.6282 99.2181 12.9791C98.9768 13.3191 98.7904 13.7303 98.6588 14.2129C98.5381 14.6954 98.4778 15.2328 98.4778 15.825L97.1453 15.9401ZM106.867 16.154C106.856 14.3883 107.098 12.8311 107.591 11.4822C108.085 10.1223 108.83 9.0585 109.828 8.29083C110.837 7.52316 112.093 7.13933 113.595 7.13933C114.681 7.13933 115.641 7.35867 116.474 7.79734C117.308 8.22504 117.96 8.95432 118.432 9.98519C118.914 11.0051 119.156 12.3979 119.156 14.1635V25.2673H113.201V14.1635C113.201 13.5165 113.124 13.0339 112.97 12.7159C112.817 12.3979 112.597 12.184 112.312 12.0744C112.038 11.9647 111.698 11.9099 111.292 11.9099C110.81 11.9099 110.393 12.014 110.042 12.2224C109.691 12.4198 109.401 12.7104 109.17 13.0943C108.94 13.4671 108.765 13.9168 108.644 14.4432C108.534 14.9696 108.479 15.5508 108.479 16.1869L106.867 16.154Z" fill="#212322"/>
<path d="M131.214 13.5713C131.214 12.9133 131.071 12.3924 130.786 12.0086C130.512 11.6138 130.035 11.4163 129.355 11.4163C128.993 11.4163 128.686 11.4712 128.433 11.5809C128.192 11.6905 128.006 11.866 127.874 12.1073C127.754 12.3485 127.693 12.672 127.693 13.0778H121.771C121.771 11.9153 122.095 10.89 122.742 10.0016C123.389 9.11334 124.304 8.41695 125.489 7.91248C126.673 7.39705 128.066 7.13933 129.667 7.13933C131.093 7.13933 132.37 7.3806 133.5 7.86313C134.63 8.3347 135.523 9.05302 136.181 10.0181C136.839 10.9722 137.168 12.1676 137.168 13.6042V20.6284C137.168 21.9115 137.234 22.8437 137.366 23.4249C137.508 24.0061 137.7 24.5216 137.942 24.9712V25.2673H132.02C131.745 24.6861 131.543 23.9733 131.411 23.1288C131.279 22.2844 131.214 21.4016 131.214 20.4803V13.5713ZM131.954 17.5522H129.667C128.735 17.5522 128.104 17.8045 127.775 18.3089C127.446 18.8134 127.282 19.3453 127.282 19.9046C127.282 20.3104 127.43 20.6394 127.726 20.8916C128.033 21.1329 128.412 21.2535 128.861 21.2535C129.42 21.2535 129.892 21.1548 130.276 20.9574C130.671 20.749 130.967 20.5078 131.164 20.2336C131.362 19.9594 131.444 19.7182 131.411 19.5098L132.678 21.9938C132.458 22.4215 132.211 22.8492 131.937 23.2769C131.674 23.6936 131.345 24.0774 130.95 24.4284C130.556 24.7793 130.073 25.059 129.503 25.2673C128.932 25.4867 128.242 25.5963 127.43 25.5963C126.344 25.5963 125.335 25.3715 124.403 24.9219C123.482 24.4722 122.742 23.8417 122.182 23.0301C121.623 22.2186 121.343 21.2754 121.343 20.2007C121.343 18.3693 122.018 16.9326 123.367 15.8908C124.716 14.8489 126.832 14.328 129.717 14.328H131.921L131.954 17.5522Z" fill="#212322"/>
<path d="M0 30.2233H137.997V35.0448H0V30.2233Z" fill="url(#paint0_linear_1_16)"/>
<defs>
<linearGradient id="paint0_linear_1_16" x1="-0.0653363" y1="32.5418" x2="137.61" y2="29.3626" gradientUnits="userSpaceOnUse">
<stop stop-color="#9B26B5"/>
<stop offset="0.363216" stop-color="#00AFD7"/>
<stop offset="0.662842" stop-color="#E73589"/>
<stop offset="1" stop-color="#FFC501"/>
</linearGradient>
</defs>
</svg>
