<svg width="807" height="598" viewBox="0 0 807 598" fill="none" xmlns="http://www.w3.org/2000/svg">
<g filter="url(#filter0_d_325_199)">
<rect x="4" width="799" height="590" rx="40" fill="#D9D9D9" fill-opacity="0.02" shape-rendering="crispEdges"/>
</g>
<path d="M34.5078 477.94C31.3028 476.092 30.2027 471.996 32.0506 468.791L60.4654 419.508C62.3133 416.303 66.4095 415.203 69.6144 417.051L118.897 445.465C122.102 447.313 123.202 451.409 121.354 454.614L92.9396 503.897C91.0917 507.102 86.9956 508.202 83.7906 506.354L34.5078 477.94Z" fill="#EE513B"/>
<path d="M54.729 429.643L51.8515 434.633L64.7411 442.065C64.567 443.057 64.6016 444.102 64.8802 445.139C65.671 448.084 68.1956 450.099 71.0602 450.382L77.7358 475.237C75.3984 476.917 74.2232 479.926 75.014 482.871C76.0343 486.67 79.9412 488.922 83.7401 487.902C87.5391 486.882 89.7916 482.975 88.7713 479.176C88.0544 476.506 85.9122 474.601 83.3838 474.057L76.6328 448.921L88.9542 456.025C88.7952 456.994 88.8352 458.012 89.1064 459.022C90.1268 462.821 94.0336 465.073 97.8325 464.053C101.632 463.033 103.884 459.126 102.864 455.327C101.843 451.528 97.9366 449.276 94.1376 450.296C93.3994 450.494 92.7195 450.801 92.1108 451.196L78.8779 443.566C78.9045 442.868 78.8281 442.154 78.6375 441.444C77.6171 437.645 73.7103 435.393 69.9114 436.413C69.2014 436.604 68.5455 436.895 67.9548 437.268L54.729 429.643Z" fill="white"/>
<g clip-path="url(#clip0_325_199)">
<path d="M627.373 153.835L663.896 33.356L776.033 77.3892L720.821 190.529L668.593 186.199L627.373 153.835Z" fill="#1172B8"/>
<path d="M763.019 83.0645L716.295 64.7173L671.344 179.191L713.31 182.188L763.019 83.0645Z" fill="#33AADD"/>
<path d="M709.715 129.544L662.991 111.197L667.076 93.9258L709.042 96.9226L671.663 82.2449L674.831 67.3104L747.253 95.7484L738.495 111.184L703.538 110.94L731.572 121.948L709.47 164.501L677.766 162.837L653.402 142.484L660.239 118.205L674.256 123.709L672.006 136.308L684.188 146.484L700.04 147.316L709.715 129.544Z" fill="white"/>
</g>
<g clip-path="url(#clip1_325_199)">
<path d="M686.171 341.576L655.696 256.768L738.919 234.169L755.524 322.743L723.673 342.562L686.171 341.576Z" fill="#E44D26"/>
<path d="M733.866 242.988L699.19 252.404L722.26 337.361L747.647 321.159L733.866 242.988Z" fill="#F16529"/>
<path d="M688.421 301.87L676.008 269.869L729.756 255.274L730.847 266.148L689.236 277.447L694.265 289.113L732.409 278.755L737.887 312.639L718.964 325.224L696.275 323.939L689.833 307.071L700.236 304.246L704.324 312.445L715.669 313.088L725.13 306.795L723.097 292.454L688.421 301.87Z" fill="white"/>
</g>
<g clip-path="url(#clip2_325_199)">
<rect x="357.054" y="39.8255" width="125.772" height="125.772" transform="rotate(13.4378 357.054 39.8255)" fill="#FFCA28"/>
<path d="M407.016 159.313L417.446 155.505C417.622 157.891 420.834 164.226 426.48 165.575C432.126 166.924 435.484 164.466 435.972 162.422C437.303 156.851 432.007 153.509 429.464 151.904C429.049 151.642 428.708 151.427 428.48 151.255C428.363 151.167 428.184 151.045 427.954 150.888C425.155 148.975 414.831 141.92 417.837 129.337C421.149 115.477 434.905 117.079 437.929 117.802C439.908 118.275 449.365 120.79 451.976 130.827L441.781 134.838C440.793 130.5 437.916 128.457 435.957 127.989C431.118 126.833 429.262 130.14 428.876 131.755C427.793 136.286 432.566 139.573 436.596 142.349C437.65 143.075 438.654 143.766 439.488 144.436C443.781 147.879 450.012 153.323 447.197 165.104C445.787 171.004 438.555 179.375 426.096 176.398C409.36 172.399 407.325 161.291 407.016 159.313Z" fill="#3E3E3E"/>
<path d="M363.044 150.057L373.855 146.344C374.061 148.736 375.942 153.505 380.09 154.496C384.237 155.487 387.377 151.735 387.866 149.691L397.464 109.519L409.009 112.277L399.411 152.45C398.273 158.035 392.553 168.383 378.99 165.143C366.52 162.163 363.107 153.514 363.044 150.057Z" fill="#3E3E3E"/>
</g>
<path d="M100.93 51.652C96.7769 50.0205 91.7564 50.7278 88.2004 53.42C70.3704 66.7583 52.541 80.0999 34.707 93.4338C31.2235 95.9328 29.2493 100.321 29.8715 104.504L38.8141 168.891C39.3801 173.165 42.6115 176.87 46.7373 178.285C52.6946 180.465 58.5358 182.968 64.566 184.938C71.535 187.238 79.7955 186.813 85.9347 182.553C90.9101 179.037 92.435 172.545 91.6418 166.882C88.7337 145.627 85.7458 124.382 82.8045 103.131C82.8007 102.169 81.9516 101.258 80.9247 101.424C78.4516 101.728 75.9828 102.087 73.5173 102.446C72.5724 102.487 71.7701 103.388 71.9706 104.316C74.8696 125.433 77.8427 146.546 80.7488 167.666C81.2082 170.579 79.6249 173.661 76.947 175.038C70.7621 178.22 50.5322 168.749 50.5322 168.749C49.8074 168.528 49.2724 167.849 49.2372 167.106C46.2868 145.863 43.3397 124.619 40.3864 103.38C40.1739 102.537 40.5946 101.692 41.3324 101.233C59.1074 87.9668 76.8687 74.675 94.6427 61.4018C95.249 60.8628 96.1813 60.7347 96.9105 61.0901C117.629 69.0139 138.342 76.9522 159.063 84.8728C159.9 85.1123 160.514 85.8264 160.553 86.6905C163.499 107.931 166.46 129.173 169.396 150.414C169.558 151.158 169.271 151.941 168.614 152.368C151.011 165.553 133.144 178.427 115.756 191.893C114.997 192.481 114.138 193.146 113.142 192.754C107.791 190.695 102.486 188.522 97.1488 186.435C96.5638 186.173 95.8582 186.125 95.3488 186.578C93.2906 188.057 91.3343 189.294 88.9248 190.658C85.5405 192.573 86.1934 193.073 89.684 194.506C95.9309 196.979 102.185 199.438 108.432 201.915C112.575 203.764 117.721 203.222 121.351 200.477C139.186 187.151 157.013 173.814 174.851 160.488C178.424 157.994 180.539 153.563 179.918 149.293L170.976 84.9063C170.443 80.7972 167.455 77.1719 163.531 75.6718C142.667 67.6547 121.797 59.6621 100.93 51.652Z" fill="#8CC84B"/>
<path d="M136.784 95.947C128.641 92.9445 119.594 93.981 111.244 95.6807C105.242 97.1272 99.0751 99.6954 95.2472 104.673C91.309 109.69 91.3028 116.909 94.2577 122.334C96.3674 126.164 100.629 128.253 104.851 129.085C110.296 130.197 115.825 130.006 121.357 129.815C126.402 129.642 131.449 129.468 136.434 130.281C138.477 130.657 140.888 131.332 141.781 133.373C142.683 135.812 142.484 138.821 140.684 140.853C134.908 146.89 116.75 148.61 109.777 145.458C106.946 144.096 105.406 141.202 104.548 138.361C104.372 137.462 103.528 136.733 102.554 136.939C100.089 137.251 97.6289 137.6 95.1705 137.961C94.3015 138.008 93.4936 138.743 93.5683 139.626C94.9107 153.002 107.936 157.105 119.578 156.79C126.215 156.504 132.904 155.539 139.159 153.238C143.854 151.46 148.433 148.752 151.252 144.554C154.738 139.444 154.609 132.574 151.977 127.177C149.981 123.154 145.572 121.009 141.256 120.189C135.383 119.045 128.596 118.935 123.451 119.157C115.973 119.479 107.242 120.984 104.48 116.424C103.294 114.001 103.565 110.749 105.682 108.863C111.275 103.817 123.918 102.628 130.747 104.869C133.888 105.931 136.008 108.714 137.134 111.666C137.389 112.543 138.121 113.394 139.152 113.211C141.603 112.92 144.042 112.545 146.487 112.208C147.335 112.151 148.188 111.549 148.233 110.667C147.244 104.31 143.085 98.2395 136.784 95.947Z" fill="#8CC84B"/>
<circle cx="542.891" cy="469.892" r="63.5284" transform="rotate(-6.08542 542.891 469.892)" fill="#1794D4"/>
<path d="M547.586 428.32L538.562 429.282L539.524 438.306L548.548 437.344L547.586 428.32Z" fill="white"/>
<path d="M512.932 445.705L521.956 444.743L522.918 453.767L513.894 454.729L512.932 445.705Z" fill="white"/>
<path d="M498.229 478.949C500.396 491.958 510.192 509.885 537.715 506.951C568.398 503.68 579.68 479.66 581.485 468.059C585.245 467.658 593.427 464.504 596.075 455.095C593.578 453.079 584.554 454.041 580.282 456.778C579.898 453.169 576.824 445.738 572.071 443.963C569.384 447.292 565.555 455.61 571.739 462.253C569.964 467.005 563.948 467.647 560.94 467.967L502.024 474.249C499.635 474.503 497.835 476.579 498.229 478.949Z" fill="white"/>
<path d="M509.863 459.722L500.838 460.685L501.801 469.709L510.825 468.747L509.863 459.722Z" fill="white"/>
<path d="M514.375 459.241L523.399 458.279L524.361 467.304L515.337 468.266L514.375 459.241Z" fill="white"/>
<path d="M536.936 456.836L527.911 457.798L528.874 466.823L537.898 465.861L536.936 456.836Z" fill="white"/>
<path d="M541.448 456.355L550.472 455.393L551.434 464.417L542.41 465.379L541.448 456.355Z" fill="white"/>
<path d="M564.009 453.95L554.984 454.912L555.947 463.936L564.971 462.974L564.009 453.95Z" fill="white"/>
<path d="M535.493 443.3L526.468 444.262L527.43 453.286L536.455 452.324L535.493 443.3Z" fill="white"/>
<path d="M540.005 442.819L549.029 441.857L549.991 450.881L540.967 451.843L540.005 442.819Z" fill="white"/>
<path d="M227.53 291.271C228.027 283.747 222.139 277.231 214.378 276.719C206.618 276.206 199.923 281.891 199.426 289.415C198.93 296.94 204.818 303.456 212.579 303.968C220.34 304.481 227.033 298.796 227.53 291.271Z" fill="#53C1DE"/>
<path fill-rule="evenodd" clip-rule="evenodd" d="M260.786 268.062C264.526 256.566 269.687 235.132 257.023 226.913C244.419 218.73 226.462 231.629 216.912 239.453C208.496 230.527 191.908 215.407 178.283 221.913C164.715 228.392 167.342 249.98 169.598 261.946C157.172 264.501 135.773 270.358 134.797 285.147C133.823 299.895 154.202 309.15 166.112 313.309C162.286 324.938 157.066 345.702 169.681 353.893C182.382 362.137 200.737 349.658 210.375 341.748C218.867 350.813 234.829 365.647 248.405 359.165C262.023 352.661 260.015 331.045 257.763 319.011C269.746 316.423 291.198 310.102 292.16 295.539C293.127 280.891 272.577 272.205 260.786 268.062ZM256.347 312.619C254.759 306.375 252.5 299.697 249.654 292.764C253.226 286.415 256.234 280.169 258.571 274.223C267.213 277.28 286.157 284.213 285.438 295.095C284.713 306.079 265.799 310.566 256.347 312.619ZM245.409 353.301C235.28 358.138 221.638 344.059 215.366 337.382C220.11 332.972 224.903 327.798 229.628 322.013C237.279 321.861 244.537 321.266 251.152 320.236C252.734 328.747 255.583 348.443 245.409 353.301ZM173.413 348.468C164.006 342.362 169.709 323.903 172.524 315.336C178.878 317.144 185.948 318.61 193.534 319.713C197.495 325.941 201.694 331.702 205.973 336.787C199.944 341.737 182.865 354.603 173.413 348.468ZM141.519 285.591C142.247 274.566 161.819 270.218 170.988 268.343C172.548 274.683 174.702 281.347 177.386 288.119C173.788 294.574 170.732 300.998 168.33 307.15C159.9 304.199 140.79 296.624 141.519 285.591ZM181.278 227.777C191.45 222.92 205.782 237.33 211.894 243.794C207.009 248.252 202.133 253.373 197.427 258.993C189.983 259.17 182.827 259.77 176.22 260.771C174.403 251.121 171.118 232.628 181.278 227.777ZM237.973 268.786C242.954 269.732 247.71 270.867 252.161 272.165C250.527 276.29 248.546 280.585 246.257 284.971C243.722 279.472 240.968 274.065 237.973 268.786ZM216.3 248.763C219.185 252.225 222.05 256.067 224.844 260.214C218.667 259.521 212.461 259.109 206.246 258.982C209.561 255.274 212.933 251.85 216.3 248.763ZM181.749 280.706C180.089 276.075 178.706 271.538 177.62 267.174C182.175 266.496 187.015 266.016 192.044 265.741C188.372 270.569 184.936 275.564 181.749 280.706ZM189.107 312.387C183.991 311.489 179.18 310.413 174.754 309.169C176.431 304.911 178.441 300.503 180.744 296.036C183.264 301.61 186.056 307.068 189.107 312.387ZM210.963 332.406C207.997 328.861 205.063 324.965 202.221 320.794C208.437 321.443 214.68 321.856 220.929 321.998C217.598 325.833 214.26 329.321 210.963 332.406ZM245.325 300.065C247.121 304.853 248.597 309.467 249.723 313.836C245.093 314.544 240.114 315.032 234.883 315.293C238.577 310.36 242.072 305.285 245.325 300.065ZM226.289 315.519C216.714 315.55 207.123 314.909 197.628 313.68C192.716 305.649 188.426 297.261 184.816 288.608C189.511 280.521 194.831 272.783 200.73 265.477C210.318 265.408 219.919 266.04 229.414 267.375C234.254 275.39 238.504 283.739 242.196 292.304C237.456 300.384 232.11 308.136 226.289 315.519ZM253.293 232.338C262.741 238.472 257.088 257.669 254.385 266C247.953 264.109 240.935 262.553 233.557 261.388C229.627 255.133 225.505 249.408 221.318 244.413C228.319 238.685 243.936 226.263 253.293 232.338Z" fill="#53C1DE"/>
<g clip-path="url(#clip3_325_199)">
<path d="M659.122 506.073L667.244 538.156L696.119 530.847L697.743 537.263L720.201 531.578L718.577 525.161L769.911 512.167L761.789 480.083L659.122 506.073Z" fill="#CB3837"/>
<path d="M678.271 508.053L667.163 510.865L672.036 530.115L683.143 527.303L679.579 513.222L685.23 511.792L688.795 525.873L694.446 524.442L689.573 505.192L678.271 508.053ZM695.224 503.762L701.721 529.428L713.023 526.567L711.399 520.151L722.507 517.339L717.634 498.089L695.224 503.762ZM715.547 513.6L710.091 514.982L707.835 506.07L713.291 504.688L715.547 513.6ZM734.392 493.847L723.285 496.658L728.158 515.908L739.265 513.097L735.701 499.016L741.352 497.585L744.916 511.666L750.567 510.236L747.003 496.154L752.654 494.724L756.219 508.805L761.87 507.375L756.997 488.124L734.392 493.847Z" fill="white"/>
</g>
<path d="M487.274 304.421C486.819 302.375 486.719 299.818 486.967 296.901C479.154 275.738 498.95 256.797 515.733 245.237C517.409 243.955 519.155 242.765 520.97 241.685C533.038 234.754 537.882 228.545 542.215 219.279C542.98 217.537 543.747 215.137 544.629 212.378C549.13 198.294 556.608 174.894 581.928 182.434C613.578 191.858 600.101 219.042 593.437 235.462C593.161 236.142 592.893 236.803 592.636 237.441C588.673 247.361 591.21 256.2 593.858 265.426C594.825 268.795 595.807 272.216 596.492 275.759C596.513 275.864 596.533 275.97 596.552 276.075C600.699 293.431 602.1 317.467 581.542 331.731C577.139 337.619 572.006 342.598 566.385 346.087C546.295 358.381 535.186 352.006 526.509 347.028C523.893 345.526 521.497 344.151 519.143 343.454C515.268 342.209 511.995 341.638 509.168 341.145C498.239 339.24 493.968 338.495 487.274 304.421Z" fill="black"/>
<path d="M593.257 204.612C589.817 212.594 578.492 216.276 567.949 212.913C557.406 209.551 551.728 200.26 555.168 192.279C558.608 184.297 569.933 180.615 580.476 183.977C590.996 187.399 596.697 196.631 593.257 204.612Z" fill="url(#paint0_linear_325_199)"/>
<path fill-rule="evenodd" clip-rule="evenodd" d="M566.942 217.012C565.309 221.445 565.862 225.983 568.031 228.781C559.12 224.353 546.362 223.268 543.871 229.656C539.515 240.408 528.257 251.508 520.154 259.498C518.558 261.072 517.084 262.525 515.81 263.831C510.541 269.423 506.166 275.894 503.261 282.782C499.977 270.229 510.03 259.688 514.935 255.324C521.432 249.598 521.709 248.675 519.616 249.795C510.453 257.017 492.737 271.791 501.323 288.164C499.767 293.373 499.09 298.745 499.522 304.093C503.237 345.963 541.432 344.252 559.27 330.248C561.708 328.219 563.84 326.167 565.7 324.107C566.106 324.655 566.58 325.142 567.126 325.554C571.905 329.254 582.35 326.318 585.756 323.291C590.045 319.179 588.993 314.822 582.623 307.643C582.296 307.284 581.968 306.939 581.641 306.608C589.705 294.945 586.506 278.3 582.709 270.287C581.696 269.574 581.291 270.148 582.353 272.561C584.723 277.661 587.911 293.798 578.767 304.094C578.111 303.611 577.459 303.197 576.816 302.858C578.65 294.116 577.492 286.308 576.684 280.851C576.501 279.615 576.335 278.5 576.227 277.521C576.008 275.547 575.644 273.45 575.258 271.226C573.77 262.654 571.955 252.196 576.845 239.655C577.28 236.646 575.393 233.791 572.323 231.423C576.663 232.18 581.515 228.658 583.613 222.968C585.872 216.84 583.951 210.511 579.357 208.856C574.763 207.201 569.144 210.862 566.942 217.012ZM570.165 219.834C568.795 223.179 569.328 226.517 571.431 227.337C573.478 228.135 576.299 226.105 577.646 222.819C579.016 219.474 578.483 216.137 576.38 215.316C574.276 214.496 571.511 216.548 570.165 219.834Z" fill="url(#paint1_linear_325_199)"/>
<path fill-rule="evenodd" clip-rule="evenodd" d="M551.888 222.03C555.254 223.139 559.369 219.639 561.135 214.271C562.9 208.904 561.59 203.697 558.224 202.589C554.857 201.48 550.742 204.98 548.977 210.347C547.211 215.715 548.521 220.922 551.888 222.03ZM557.009 214.773C556.211 217.66 554.267 219.623 552.696 219.283C551.149 218.884 550.534 216.263 551.332 213.376C552.131 210.489 554.075 208.525 555.645 208.865C557.193 209.264 557.808 211.886 557.009 214.773Z" fill="url(#paint2_linear_325_199)"/>
<path d="M571.753 218.276C570.846 220.099 571.1 221.968 572.248 222.551C573.395 223.135 575.108 222.102 575.993 220.337C576.9 218.513 576.646 216.645 575.499 216.061C574.351 215.478 572.638 216.511 571.753 218.276Z" fill="url(#paint3_linear_325_199)"/>
<path d="M556.337 212.808C555.908 214.41 554.753 215.525 553.798 215.289C552.842 215.052 552.45 213.538 552.901 211.877C553.329 210.275 554.485 209.16 555.44 209.396C556.396 209.633 556.765 211.206 556.337 212.808Z" fill="url(#paint4_linear_325_199)"/>
<path d="M567.274 288.048C563.221 298.444 548.362 308.166 531.921 301.619C514.877 295.11 512.908 278.827 516.962 268.431C521.016 258.035 535.565 253.977 549.437 259.386C563.342 264.875 571.328 277.652 567.274 288.048Z" fill="url(#paint5_linear_325_199)"/>
<path d="M571.033 251.883C566.671 262.567 558.915 262.469 550.388 259.144C541.86 255.819 536.285 251.808 540.107 239.825C542.963 232.5 551.557 230.952 560.084 234.277C568.635 237.543 573.912 244.5 571.033 251.883Z" fill="url(#paint6_linear_325_199)"/>
<path d="M513.022 248.317C522.025 241.688 539.067 232.75 514.502 251.072C494.438 266.249 497.171 282.081 499.769 287.177C507.107 302.287 503.865 309.257 497.014 300.121C482.304 280.571 494.217 261.944 513.022 248.317Z" fill="url(#paint7_linear_325_199)"/>
<path d="M592.285 283.374C591.483 271.153 586.36 238.942 595.396 277.579C603.685 312.589 582.84 326.577 579.715 327.537C576.591 328.496 567.078 329.21 572.011 323.444C577.001 317.7 593.755 309.67 592.285 283.374Z" fill="url(#paint8_linear_325_199)"/>
<path d="M475.626 331.794C465.633 319.8 443.886 320.983 458.01 304.579C461.056 300.799 460.235 292.994 464.031 289.642C468.593 285.501 473.67 288.773 478.303 286.633C482.925 284.352 487.367 279.007 493.082 282.324C498.739 285.619 499.781 294.871 500.303 305.963C500.804 313.916 508.125 327.726 504.438 334.999C499.014 346.221 485.485 343.464 475.626 331.794Z" fill="url(#paint9_linear_325_199)"/>
<path fill-rule="evenodd" clip-rule="evenodd" d="M479.162 288.563C474.745 290.742 469.374 287.712 465.363 291.254C462.788 293.528 462.684 298.527 461.685 301.728C460.45 305.683 455.131 309.894 455.474 313.816C455.86 318.221 464.294 320.958 467.713 322.901C476.154 327.699 486.429 345.05 498.127 338.961C509.563 333.009 498.814 315.643 498.217 306.155C497.916 299.759 498.36 287.895 492.015 284.198C487.54 281.602 483.08 286.63 479.162 288.563ZM494.142 280.447C502.041 285.048 501.998 297.598 502.384 305.784C503.153 317.737 515.065 334.908 499.934 342.783C486.193 349.935 475.731 332.418 465.622 326.673C460.573 323.802 451.908 321.071 451.316 314.311C450.807 308.499 456.156 305.5 457.713 300.512C459.039 296.262 459.134 291.18 462.68 288.037C467.59 283.591 472.391 287.003 477.462 284.687C482.949 281.964 487.66 276.685 494.142 280.447Z" fill="#E68C3F"/>
<path d="M565.181 362.97C579.088 354.85 598.894 365.363 591.197 343.784C589.599 339.147 593.411 332.059 591.016 327.45C588.273 321.889 582.31 323.239 578.773 319.546C575.304 315.676 572.392 309.709 565.953 310.601C559.491 311.552 555.883 319.127 551.363 329.206C548.03 336.412 536.735 346.23 537.554 354.375C538.458 366.84 552.029 370.499 565.181 362.97Z" fill="url(#paint10_linear_325_199)"/>
<path fill-rule="evenodd" clip-rule="evenodd" d="M585.919 320.766C588.335 321.635 591.132 322.919 592.866 326.417C595.06 330.67 593.217 335.495 592.906 340.017C592.539 345.371 596.708 350.137 594.213 355.611C590.135 364.559 573.434 360.585 566.161 364.832C559.212 368.809 551.941 369.957 546.139 368.231C537.34 365.614 533.094 355.701 537.005 347.145C540.171 340.218 546.29 335.189 549.47 328.333C551.707 323.343 553.821 318.731 556.235 315.259C558.674 311.75 561.649 309.069 565.702 308.472C574.549 307.247 578.416 318.065 585.919 320.766ZM566.18 312.724C563.776 313.081 561.718 314.663 559.61 317.696C557.476 320.766 555.516 325 553.237 330.084C550.056 336.959 543.933 341.98 540.775 348.889C537.959 355.049 540.772 362.133 547.395 364.103C551.89 365.44 557.986 364.649 564.187 361.101C569.76 357.851 587.729 359.821 590.441 353.871C592.212 349.986 588.44 344.223 588.741 339.825C588.978 336.383 590.78 331.611 589.162 328.497C588.151 326.449 586.582 325.591 584.45 324.824C578.271 322.599 573.091 311.775 566.18 312.724Z" fill="#E68C3F"/>
<path d="M567.265 345.682C590.341 329.161 579.528 325.149 576.557 322.017C573.61 318.827 571.16 313.856 565.952 314.616C560.721 315.434 558.006 321.725 554.622 330.068C552.102 336.027 543.331 344.243 544.043 350.985C545.011 358.916 557.246 352.731 567.265 345.682Z" fill="url(#paint11_linear_325_199)"/>
<path d="M478.818 314.87C462.881 291.916 474.935 290.9 479.074 289.86C484.148 288.436 486.416 282.787 491.041 285.203C495.666 287.619 496.09 294.929 496.336 303.872C496.582 310.296 502.026 320.857 498.937 326.933C495.239 334.066 485.724 324.708 478.818 314.87Z" fill="url(#paint12_linear_325_199)"/>
<path d="M584.578 322.628C581.675 325.034 572.851 327.174 568.753 324.079C564.518 320.998 565.052 313.245 568.045 308.424C571.201 302.849 576.376 304.527 581.592 309.963C587.113 315.79 588.157 319.328 584.578 322.628Z" fill="black"/>
<path d="M580.583 319.095C578.674 320.8 572.813 322.394 569.975 320.266C567.137 318.139 567.41 312.734 569.327 309.33C571.371 305.432 574.874 306.525 578.412 310.218C582.198 314.281 582.939 316.747 580.583 319.095Z" fill="url(#paint13_linear_325_199)"/>
<path d="M551.852 219.089C554.978 217.79 563.095 213.266 570.838 224.314C572.264 226.368 573.81 227.106 576.86 230.201C583.064 236.295 576.545 242.599 567.573 242.095C563.724 241.887 558.973 245.002 552.994 242.195C547.822 239.838 547.863 235.703 545.383 232.49C540.954 226.884 541.874 222.004 545.945 220.801C550.016 219.598 551.556 219.178 551.852 219.089Z" fill="url(#paint14_linear_325_199)"/>
<path fill-rule="evenodd" clip-rule="evenodd" d="M546.261 222.038C544.714 222.495 543.858 223.572 543.723 225.079C543.446 228.174 547.775 234.269 549.274 237.01C550.126 238.568 551.247 239.976 553.538 241.02C558.423 243.314 562.714 240.541 567.673 240.808C570.931 240.992 578.453 239.769 578.04 234.845C577.686 230.643 571.948 228.155 569.813 225.083C566.128 219.825 562.494 218.435 559.549 218.359C556.323 218.276 549.598 221.052 546.261 222.038ZM559.677 215.783C563.508 215.882 567.806 217.759 571.863 223.547C574.52 227.373 580.091 229.276 580.535 234.557C581.101 241.284 572.448 243.66 567.473 243.381C562.14 243.094 557.98 245.963 552.455 243.372C549.579 242.059 548.123 240.217 547.083 238.317C544.926 234.374 540.506 229.703 540.931 224.951C541.167 222.315 543.105 220.309 545.628 219.563C549.707 218.358 555.627 215.679 559.677 215.783Z" fill="#E68C3F"/>
<path fill-rule="evenodd" clip-rule="evenodd" d="M575.811 235.525C575.661 235.978 575.186 236.229 574.75 236.087C568.6 234.082 561.695 239.3 554.899 236.65C551.097 235.168 548.802 232.16 547.338 229.556C547.043 229.032 544.368 224.59 544.661 223.838C544.834 223.394 545.321 223.169 545.748 223.336C546.547 223.648 547.939 227.206 548.55 228.292C549.928 230.743 552.222 233.754 555.526 235.042C562.253 237.665 569.055 232.415 575.292 234.449C575.728 234.591 575.96 235.073 575.811 235.525Z" fill="#E68C3F"/>
<path d="M555.613 219.875C557.164 219.255 561.874 217.758 565.441 222.551C566.234 223.541 567.004 224.589 568.137 226.052C570.436 229.058 567.921 231.139 563.638 231.375C561.713 231.441 558.385 231.912 556.385 230.996C554.203 229.873 553.267 227.739 552.18 226.159C550.132 223.182 550.924 221.654 552.715 220.923C554.05 220.355 555.476 219.89 555.613 219.875Z" fill="url(#paint15_linear_325_199)"/>
<g clip-path="url(#clip4_325_199)">
<path d="M272.26 469.236L299.547 539.451L439.976 484.876L385.402 344.447L244.973 399.022L272.26 469.236Z" fill="#007ACC"/>
<path d="M303.496 457.634L305.686 463.401L323.964 456.298L344.148 508.235L357.076 503.211L336.892 451.274L355.17 444.171L352.979 438.532C351.766 435.41 350.685 432.828 350.57 432.796C350.469 432.733 339.328 437.011 325.852 442.274L301.335 451.879L303.495 457.633L303.496 457.634ZM383.463 419.774C387.376 419.279 390.711 419.805 394.212 421.42C396.042 422.3 398.938 424.074 399.328 424.615C399.441 424.776 394.928 431.251 392.12 434.985C392.021 435.126 391.261 434.755 390.312 434.097C387.485 432.168 385.148 431.768 382.172 432.693C377.803 434.058 375.927 437.352 377.396 441.066C377.821 442.159 378.228 442.744 379.02 443.462C380.71 445.038 382.899 445.522 389.279 445.762C401.012 446.179 406.422 447.361 410.674 450.378C415.42 453.742 418.895 460.705 418.954 466.865C418.995 473.571 415.009 479.687 407.74 484.025C405.498 485.384 399.766 487.535 396.998 488.072C390.969 489.261 384.536 488.553 379.816 486.18C377.969 485.256 374.003 482.512 374.056 482.184C374.088 482.068 374.529 481.487 375.028 480.857C375.513 480.257 377.348 477.979 379.075 475.821L382.2 471.912L383.532 472.831C385.415 474.177 388.962 475.647 390.843 475.865C396.241 476.487 402.264 473.762 404.238 469.864C405.072 468.18 405.13 466.747 404.429 464.941C403.796 463.314 403.318 462.679 401.995 461.782C400.297 460.645 397.557 460.197 390.16 459.916C381.703 459.61 377.829 458.884 373.78 456.916C371.438 455.774 368.769 453.527 367.195 451.393C365.89 449.617 363.824 444.699 363.468 442.528C362.241 434.948 365.627 428.014 372.687 423.602C374.979 422.173 380.8 420.116 383.463 419.774V419.774Z" fill="white"/>
</g>
<g clip-path="url(#clip5_325_199)">
<path d="M395 204.151C399.677 202.975 404.42 205.762 405.664 210.39L405.7 210.531L425.246 288.258C426.419 292.922 423.617 297.656 418.977 298.904L418.836 298.94L350.392 316.152C345.714 317.328 340.972 314.54 339.728 309.913L339.691 309.772L320.145 232.045C318.972 227.38 321.774 222.647 326.414 221.399L326.556 221.363L395 204.151ZM396.191 208.891L327.747 226.102C325.684 226.621 324.413 228.694 324.875 230.752L324.898 230.85L344.444 308.577C344.961 310.634 347.038 311.899 349.102 311.436L349.2 311.412L417.644 294.201C419.709 293.682 420.979 291.61 420.517 289.551L420.493 289.453L400.947 211.726C400.422 209.636 398.289 208.363 396.191 208.891V208.891ZM354.883 279.749L367.961 286.538L359.65 298.707L354.882 279.749L354.883 279.749ZM352.47 229.964L359.237 256.873C363.596 254.139 369.809 250.799 376.253 249.178C382.129 247.701 386.226 249.12 388.627 250.571C393.701 253.635 395.102 258.8 395.27 259.493L395.275 259.513L402.427 287.949L392.921 290.34L385.803 262.033C385.2 259.833 383.462 257.444 378.637 258.658C369.068 261.064 359.541 268.511 359.259 268.733L359.253 268.738L353.301 273.459L342.964 232.354L352.47 229.963L352.47 229.964ZM385.742 221.597C386.454 227.142 385.563 232.854 382.486 238.793L372.979 241.184C375.486 235.356 376.539 229.623 376.236 223.988L385.742 221.597Z" fill="#430098"/>
</g>
<g clip-path="url(#clip6_325_199)">
<path d="M525.875 73.2664L520.261 69.8313L528.153 102.53L528.576 104.045C528.771 104.759 529.1 105.539 529.525 106.326L568.417 110.337L576.422 104.209L576.423 104.197L525.875 73.2664Z" fill="#00D2B8"/>
<path d="M529.525 106.326L529.527 106.328C529.522 106.313 529.51 106.299 529.506 106.284C529.51 106.299 529.516 106.313 529.525 106.326V106.326ZM576.422 104.209L568.417 110.337L529.527 106.328C530.845 108.79 533.071 111.378 535.092 112.6L549.591 121.416L575.611 115.188L576.423 104.197L576.422 104.209V104.209Z" fill="#55DDCA"/>
<path d="M511.395 94.2309C510.535 95.7463 511.724 98.1584 514.041 99.5885L524.038 105.763L529.525 106.326C529.1 105.539 528.771 104.759 528.576 104.045L528.154 102.53L520.261 69.8313L511.395 94.2309V94.2309Z" fill="#0081C6"/>
<path d="M556.957 61.4414C556.064 61.429 555.226 61.4903 554.489 61.6433L552.86 61.9765L520.261 69.8291L576.427 104.196L576.431 104.195L578.248 94.2684L556.957 61.4414Z" fill="#0079B3"/>
<path d="M556.914 61.4425C556.932 61.4421 556.947 61.4438 556.959 61.4426L556.957 61.4414C556.946 61.4388 556.932 61.4421 556.914 61.4425ZM565.073 63.5509C563.031 62.2899 559.754 61.486 556.959 61.4426L578.248 94.2684L576.431 104.195L576.427 104.196L585.396 98.7543L579.004 72.1121L565.073 63.5509V63.5509Z" fill="#00A4E4"/>
<path d="M553.974 56.8401L543.928 50.7433C541.605 49.337 538.914 49.3732 537.959 50.8251L520.26 69.8291L552.86 61.9764L554.489 61.6433C555.225 61.4902 556.064 61.4289 556.957 61.4414L553.974 56.8401V56.8401Z" fill="#00D2B8"/>
</g>
<g clip-path="url(#clip7_325_199)">
<path d="M705.724 384.215L656.268 403.107L662.224 418.373L726.988 393.634L705.724 384.215ZM691.553 415.562L665.073 425.677L670.981 441.159L686.261 435.322L713.057 425.087L691.553 415.562Z" fill="#47C5FB"/>
<path d="M670.981 441.158L675.507 452.758L696.651 462.124L686.26 435.322L670.981 441.158Z" fill="#00569E"/>
<path d="M664.9 425.742L680.208 419.895L686.26 435.322L670.981 441.158L664.9 425.742Z" fill="#00B5F8"/>
<path d="M670.981 441.158L681.107 442.161L684.968 435.815L670.981 441.158Z" fill="url(#paint16_linear_325_199)" fill-opacity="0.8"/>
</g>
<g clip-path="url(#clip8_325_199)">
<path d="M302.116 106.549C301.065 107.378 299.747 107.793 298.411 107.717C297.075 107.641 295.814 107.078 294.864 106.136L277.923 93.5606L275.495 91.8217L267.697 114.745C267.482 116.004 266.817 117.141 265.824 117.945C264.832 118.748 263.581 119.163 262.305 119.111L272.455 89.8964L249.31 73.7204C250.355 72.923 251.642 72.5099 252.955 72.5506C254.269 72.5913 255.528 73.0834 256.521 73.9439L273.956 86.5846L281.047 66.2665C281.273 65.0258 281.946 63.911 282.939 63.1342C283.933 62.3574 285.177 61.9726 286.435 62.0531L282.742 72.5068L277.671 86.4476C277.499 86.7367 277.39 87.0588 277.351 87.3929C277.313 87.727 277.345 88.0655 277.447 88.3861C277.548 88.7068 277.716 89.0024 277.94 89.2536C278.163 89.5048 278.437 89.706 278.744 89.8438L302.083 106.563L302.116 106.549ZM212.549 108.509L211.743 100.966C211.255 85.7007 225.483 74.7881 239.283 79.9716C247.366 83.0125 251.258 89.7041 253.507 97.9226L217.033 109.452C221.025 124.136 234.254 129.582 246.216 120.882C248.138 119.416 249.666 117.496 250.664 115.294C251.661 113.093 252.097 110.678 251.932 108.266C251.92 105.767 252.962 105.01 255.308 104.99C255.829 107.878 255.688 110.847 254.897 113.673C254.105 116.499 252.682 119.109 250.736 121.306C247.456 124.728 243.178 127.026 238.514 127.87C233.85 128.715 229.038 128.063 224.766 126.008C220.351 123.373 216.92 119.365 214.996 114.598C214.742 113.795 214.231 113.13 213.819 112.467C213.385 111.152 212.96 109.835 212.543 108.515L212.549 108.509ZM216.091 106.315L249.076 95.8884C245.548 85.4434 236.56 80.0844 227.693 82.8122C217.802 85.7881 213.062 95.3063 216.052 106.274L216.091 106.315Z" fill="white"/>
</g>
<path d="M233.171 529.19C232.995 527.568 231.915 526.234 230.28 525.621C229.509 525.332 228.586 525.188 227.46 525.181C225.496 525.17 224.069 525.021 223.044 524.833C228.277 519.137 232.986 512.373 236.277 505.763C241.597 495.074 241.14 489.591 239.82 486.873C236.327 479.68 230.018 474.871 221.576 472.966C217.073 471.948 212.919 471.998 210.714 472.201C208.862 471.449 206.833 470.818 204.668 470.32C200.611 469.387 196.824 469.511 193.36 470.687C191.782 469.746 189.224 468.35 186.181 467.158C179.024 464.354 172.843 464.032 167.809 466.201C161.713 468.828 157.868 474.829 156.379 484.037C155.907 486.961 155.642 496.107 156.401 504.996C156.837 510.105 157.543 514.421 158.5 517.825C159.856 522.652 161.753 525.729 164.298 527.231C165.725 528.073 168.44 529.028 171.899 527.199C172.175 527.73 172.575 528.286 173.145 528.844C173.869 529.552 174.8 530.203 175.767 530.678C179.253 532.387 182.752 532.891 185.971 532.223C185.878 532.752 185.785 533.257 185.704 533.693C185.573 534.401 185.446 535.094 185.334 535.745C184.579 540.142 184.152 543.595 184.522 546.154C184.542 546.294 184.564 546.507 184.587 546.733C184.738 548.168 184.989 550.571 186.472 552.728C188.008 554.961 190.216 556.016 192.347 556.471C193.416 556.699 194.466 556.775 195.402 556.773C198.737 556.767 202.582 556.494 206 553.307C209.232 550.295 211.573 545.219 213.582 536.863C213.661 536.631 213.735 536.41 213.806 536.199L213.953 535.766L214.525 535.942L214.673 535.984C217.89 536.825 222.009 536.981 224.69 536.363C226.809 535.876 233.683 533.919 233.171 529.19" fill="black"/>
<path d="M227.434 528.865C217.35 528.807 217.385 525.383 217.385 525.383C230.82 512.366 239.193 493.994 236.521 488.491C229.229 473.479 210.559 475.864 210.236 475.96L210.139 475.957C208.316 475.153 206.231 474.461 203.839 473.91C199.485 472.907 195.91 473.422 192.986 474.801C192.986 474.801 164.729 455.378 160.002 484.621C158.996 490.842 158.862 533.072 171.581 523.02C176.231 519.343 180.608 516.33 180.608 516.33C182.13 517.892 184.126 518.948 186.399 519.206L186.604 519.096C186.432 519.638 186.341 520.186 186.302 520.849C183.073 523.216 183.73 523.893 178.29 523.859C172.785 523.826 175.469 526.428 177.382 527.367C179.703 528.505 185.188 530.585 190.168 526.017L189.884 526.599C190.73 527.638 190.484 532.31 189.49 536.382C188.497 540.454 187.817 543.25 188.153 545.619C188.489 547.988 188.237 553.102 195.4 553.089C201.386 553.078 205.032 550.519 206.579 545.285C207.678 541.564 208.222 542.264 208.984 538.89L209.857 537.402C211.563 532.404 211.401 530.639 214.762 532.16L215.604 532.419C218.173 533.09 221.684 533.277 223.876 532.772C228.595 531.687 231.853 528.89 227.433 528.865L227.434 528.865" fill="#336791"/>
<path d="M190.777 494.059C189.933 493.752 189.121 493.697 188.657 493.915C188.397 494.037 188.285 494.22 188.238 494.352C188.111 494.702 188.277 495.154 188.388 495.392C188.701 496.067 189.254 496.603 189.867 496.825C189.956 496.858 190.046 496.883 190.137 496.903C191.191 497.127 192.325 496.508 192.539 495.918C192.806 495.179 191.813 494.436 190.777 494.06M219.603 500.229C219.648 499.615 218.626 499.219 217.592 499.145C216.559 499.071 215.49 499.319 215.444 499.934C215.409 500.413 216.077 501.386 217.067 501.597C217.151 501.615 217.237 501.627 217.325 501.633C218.005 501.682 218.58 501.364 218.863 501.17C219.292 500.875 219.584 500.505 219.603 500.229" fill="white"/>
<path d="M230.696 529.323C230.566 528.127 229.457 527.514 227.401 527.503C221.296 527.468 219.381 526.182 218.802 525.528C224.828 519.546 230.358 511.941 234.046 504.532C235.793 501.023 237.055 497.686 237.698 494.885C238.403 491.81 238.363 489.431 237.579 487.816C234.417 481.306 228.667 476.949 220.953 475.219C215.65 474.026 210.868 474.434 209.916 474.633C208.18 473.784 206.241 473.077 204.072 472.577C200.096 471.662 196.442 471.886 193.17 473.232C192.028 472.504 189.058 470.716 185.272 469.246C178.728 466.706 173.165 466.388 168.739 468.302C163.457 470.586 160.097 475.966 158.751 484.291C158.298 487.092 158.054 495.953 158.796 504.647C159.772 516.09 162.027 522.931 165.498 524.979C165.904 525.219 166.386 525.428 166.943 525.547C168.306 525.838 170.109 525.577 172.295 523.849C174.961 521.747 177.686 519.722 180.468 517.777C181.768 518.882 183.288 519.668 184.929 520.064C184.923 520.108 184.918 520.153 184.913 520.197C184.556 520.476 184.204 520.762 183.858 521.054C182.403 522.268 182.1 522.52 178.257 522.496C177.163 522.49 174.259 522.473 173.801 524.421C173.301 526.551 176.442 528.159 176.801 528.335C178.053 528.95 179.293 529.385 180.508 529.645C183.464 530.275 186.274 529.854 188.755 528.41C187.066 536.02 185.781 543.6 186.205 546.083C186.552 548.117 187.4 553.085 193.163 554.313C194.009 554.493 194.961 554.593 196.031 554.591C202.322 554.579 205.502 552.467 207.767 546.799C208.978 543.769 211.506 536.459 212.801 532.524C213.661 533.009 214.818 533.394 216.1 533.667C218.773 534.237 221.979 534.324 224.106 533.835C226.495 533.285 230.946 531.635 230.696 529.323V529.323ZM222.174 499.055C221.901 500.239 221.508 501.284 221.095 502.374C220.651 503.546 220.191 504.758 219.819 506.269C219.456 507.738 219.312 509.316 219.172 510.843C218.891 513.925 218.601 517.098 216.521 519.847C216.374 519.374 216.255 518.893 216.166 518.405C216.081 517.935 215.843 517.158 215.514 516.083C214.233 511.899 211.235 502.101 214.488 499.057C215.457 498.151 217.573 497.458 222.174 499.055V499.055ZM220.739 477.69C227.634 479.321 232.559 483.091 235.378 488.895C237.54 493.348 230.56 510.021 217.879 522.986C217.81 522.844 217.74 522.702 217.669 522.56L217.581 522.384C220.899 518.842 221.277 514.719 221.61 511.063C221.746 509.562 221.875 508.145 222.194 506.856C222.531 505.489 222.964 504.348 223.382 503.244C223.897 501.884 224.427 500.476 224.732 498.748C224.816 498.577 224.879 498.369 224.909 498.111C225.105 496.434 224.284 491.112 221.422 485.845C219.856 482.963 217.396 479.588 213.636 476.863C215.501 476.872 218.017 477.046 220.739 477.69V477.69ZM170.782 521.921C168.373 523.825 167.145 523.099 166.741 522.861C164.108 521.308 162.101 514.591 161.234 504.434C160.484 495.645 160.787 487.032 161.167 484.68C162.369 477.241 165.24 472.491 169.7 470.559C176.957 467.416 186.744 472.31 190.617 474.559C190.545 474.606 190.47 474.648 190.398 474.695C182.091 480.165 179.731 492.032 179.593 492.759C179.533 493.038 179.472 493.438 179.388 493.989C179.082 496.004 178.511 499.755 177.032 503.825C175.658 507.607 176.042 511.678 178.084 514.993C178.294 515.332 178.52 515.661 178.762 515.978C177.324 516.987 174.187 519.228 170.782 521.921V521.921ZM180.166 513.699C178.52 511.027 178.216 507.734 179.331 504.663C180.893 500.363 181.488 496.455 181.808 494.356C181.852 494.062 181.891 493.804 181.925 493.602C183.112 492.926 188.267 491.425 191.404 492.886C192.835 493.553 193.532 494.777 193.536 496.628C193.557 506.211 191.031 509.664 189.001 512.44C188.583 513.011 188.187 513.552 187.827 514.121L187.548 514.561C186.841 515.674 186.184 516.708 185.698 517.72C183.446 517.233 181.461 515.8 180.166 513.698L180.166 513.699ZM177.878 526.128C177.256 525.823 176.725 525.41 176.429 525.098C176.748 525.023 177.304 524.947 178.238 524.953C182.76 524.981 183.563 524.492 185.421 522.941C185.847 522.585 186.329 522.183 186.981 521.705L186.982 521.705C187.952 520.991 188.279 521.217 188.87 521.626C189.35 521.957 189.722 522.728 189.774 523.502C189.799 523.867 189.77 524.544 189.301 524.975C185.335 528.614 180.901 527.611 177.878 526.128V526.128ZM196.031 552.135C190.489 552.145 189.192 549.031 188.617 545.665C188.246 543.492 189.779 534.376 192.184 524.46C192.216 524.328 192.224 524.196 192.214 524.068C192.232 523.823 192.233 523.577 192.216 523.331C192.111 521.792 191.362 520.363 190.26 519.602C189.822 519.299 189.018 518.745 187.9 518.791C188.325 517.904 188.942 516.932 189.611 515.879L189.892 515.436C190.208 514.937 190.58 514.429 190.973 513.891C193.097 510.987 196.006 507.01 195.984 496.619C195.975 492.727 193.686 490.34 189.539 489.897C187.053 489.631 184.618 490.142 183.387 490.47C183.123 490.541 182.879 490.612 182.651 490.682C183.76 486.999 186.424 480.242 191.747 476.742C195.099 474.539 199.064 473.943 203.521 474.971C212.303 476.995 216.987 482.74 219.37 487.204C221.423 491.05 222.211 494.652 222.428 496.55C218.058 495.142 214.832 495.38 212.821 497.262C208.445 501.355 211.639 511.792 213.174 516.808C213.456 517.727 213.699 518.522 213.759 518.85C214.149 520.996 214.918 522.538 215.48 523.663C215.652 524.008 215.819 524.343 215.939 524.629C214.503 524.732 211.88 525.119 211.138 529.688C210.476 531.919 206.941 542.272 205.496 545.888C203.587 550.665 201.376 552.124 196.031 552.135L196.031 552.135ZM223.563 531.441C222.042 531.791 219.624 531.781 217.403 531.416C214.949 531.012 213.795 530.361 213.555 530.061C214.019 527.214 215.127 527.142 216.299 527.066C216.483 527.055 216.663 527.043 216.839 527.02C216.923 527.125 217.016 527.231 217.121 527.338C218.798 529.048 222.25 529.93 227.384 529.959L227.44 529.96C226.644 530.441 225.331 531.034 223.563 531.441Z" fill="white"/>
<path d="M93.3291 290.673C88.1872 286.45 83.6037 282.128 82.6999 281.159L82.5476 281.186C82.0214 282.356 79.2027 288.036 75.8169 293.764C47.3387 345.939 95.1162 369.318 95.1162 369.318L95.5154 369.504C96.6541 374.177 98.678 380.9 98.678 380.9L101.825 380.345C101.825 380.345 101.384 373.394 100.845 368.563L101.148 368.202C101.148 368.202 137.945 329.95 93.3291 290.673ZM97.8866 368.111C96.8706 367.551 95.9134 366.895 95.0287 366.152L88.685 315.966L99.7494 365.319C99.2169 366.303 98.5934 367.238 97.8866 368.111Z" fill="#00ED64"/>
<defs>
<filter id="filter0_d_325_199" x="2.38419e-07" y="0" width="807" height="598" filterUnits="userSpaceOnUse" color-interpolation-filters="sRGB">
<feFlood flood-opacity="0" result="BackgroundImageFix"/>
<feColorMatrix in="SourceAlpha" type="matrix" values="0 0 0 0 0 0 0 0 0 0 0 0 0 0 0 0 0 0 127 0" result="hardAlpha"/>
<feOffset dy="4"/>
<feGaussianBlur stdDeviation="2"/>
<feComposite in2="hardAlpha" operator="out"/>
<feColorMatrix type="matrix" values="0 0 0 0 0 0 0 0 0 0 0 0 0 0 0 0 0 0 0.25 0"/>
<feBlend mode="normal" in2="BackgroundImageFix" result="effect1_dropShadow_325_199"/>
<feBlend mode="normal" in="SourceGraphic" in2="effect1_dropShadow_325_199" result="shape"/>
</filter>
<linearGradient id="paint0_linear_325_199" x1="581.317" y1="185.075" x2="569.243" y2="210.361" gradientUnits="userSpaceOnUse">
<stop stop-color="white" stop-opacity="0.8"/>
<stop offset="1" stop-color="white" stop-opacity="0"/>
</linearGradient>
<linearGradient id="paint1_linear_325_199" x1="498.496" y1="316.419" x2="502.487" y2="263.977" gradientUnits="userSpaceOnUse">
<stop stop-color="#FFEED7"/>
<stop offset="1" stop-color="#BDBFC2"/>
</linearGradient>
<linearGradient id="paint2_linear_325_199" x1="498.496" y1="316.419" x2="502.487" y2="263.977" gradientUnits="userSpaceOnUse">
<stop stop-color="#FFEED7"/>
<stop offset="1" stop-color="#BDBFC2"/>
</linearGradient>
<linearGradient id="paint3_linear_325_199" x1="575.279" y1="216.209" x2="572.105" y2="221.958" gradientUnits="userSpaceOnUse">
<stop stop-color="white" stop-opacity="0.65"/>
<stop offset="1" stop-color="white" stop-opacity="0"/>
</linearGradient>
<linearGradient id="paint4_linear_325_199" x1="555.458" y1="209.753" x2="554.416" y2="215" gradientUnits="userSpaceOnUse">
<stop stop-color="white" stop-opacity="0.65"/>
<stop offset="1" stop-color="white" stop-opacity="0"/>
</linearGradient>
<linearGradient id="paint5_linear_325_199" x1="547.189" y1="265" x2="533.808" y2="299.742" gradientUnits="userSpaceOnUse">
<stop stop-color="white" stop-opacity="0.8"/>
<stop offset="1" stop-color="white" stop-opacity="0"/>
</linearGradient>
<linearGradient id="paint6_linear_325_199" x1="556.442" y1="243.55" x2="551.225" y2="257.404" gradientUnits="userSpaceOnUse">
<stop stop-color="white" stop-opacity="0.65"/>
<stop offset="1" stop-color="white" stop-opacity="0"/>
</linearGradient>
<linearGradient id="paint7_linear_325_199" x1="517.275" y1="238.084" x2="497.54" y2="288.698" gradientUnits="userSpaceOnUse">
<stop stop-color="white" stop-opacity="0.65"/>
<stop offset="1" stop-color="white" stop-opacity="0"/>
</linearGradient>
<linearGradient id="paint8_linear_325_199" x1="600.032" y1="264.658" x2="582.18" y2="310.382" gradientUnits="userSpaceOnUse">
<stop stop-color="white" stop-opacity="0.65"/>
<stop offset="1" stop-color="white" stop-opacity="0"/>
</linearGradient>
<linearGradient id="paint9_linear_325_199" x1="486.55" y1="309.411" x2="468.7" y2="332.286" gradientUnits="userSpaceOnUse">
<stop stop-color="#FFA63F"/>
<stop offset="1" stop-color="#FFFF00"/>
</linearGradient>
<linearGradient id="paint10_linear_325_199" x1="562.99" y1="330.141" x2="572.679" y2="366.416" gradientUnits="userSpaceOnUse">
<stop stop-color="#FFA63F"/>
<stop offset="1" stop-color="#FFFF00"/>
</linearGradient>
<linearGradient id="paint11_linear_325_199" x1="577.312" y1="309.765" x2="556.788" y2="341.028" gradientUnits="userSpaceOnUse">
<stop stop-color="white" stop-opacity="0.65"/>
<stop offset="1" stop-color="white" stop-opacity="0"/>
</linearGradient>
<linearGradient id="paint12_linear_325_199" x1="493.541" y1="286.811" x2="480.019" y2="325.729" gradientUnits="userSpaceOnUse">
<stop stop-color="white" stop-opacity="0.65"/>
<stop offset="1" stop-color="white" stop-opacity="0"/>
</linearGradient>
<linearGradient id="paint13_linear_325_199" x1="576.302" y1="308.654" x2="573.511" y2="320.77" gradientUnits="userSpaceOnUse">
<stop stop-color="white" stop-opacity="0.65"/>
<stop offset="1" stop-color="white" stop-opacity="0"/>
</linearGradient>
<linearGradient id="paint14_linear_325_199" x1="563.618" y1="222.941" x2="555.888" y2="243.181" gradientUnits="userSpaceOnUse">
<stop stop-color="#FFA63F"/>
<stop offset="1" stop-color="#FFFF00"/>
</linearGradient>
<linearGradient id="paint15_linear_325_199" x1="562.159" y1="220.174" x2="557.96" y2="230.833" gradientUnits="userSpaceOnUse">
<stop stop-color="white" stop-opacity="0.65"/>
<stop offset="1" stop-color="white" stop-opacity="0"/>
</linearGradient>
<linearGradient id="paint16_linear_325_199" x1="674.484" y1="434.286" x2="680.34" y2="439.909" gradientUnits="userSpaceOnUse">
<stop/>
<stop offset="1" stop-opacity="0"/>
</linearGradient>
<clipPath id="clip0_325_199">
<rect width="160.63" height="160.63" fill="white" transform="translate(650.711 12) rotate(21.4385)"/>
</clipPath>
<clipPath id="clip1_325_199">
<rect width="114.983" height="114.983" fill="white" transform="translate(639 250.132) rotate(-15.192)"/>
</clipPath>
<clipPath id="clip2_325_199">
<rect width="143.74" height="143.74" fill="white" transform="translate(350.403 29) rotate(13.4378)"/>
</clipPath>
<clipPath id="clip3_325_199">
<rect width="105.905" height="105.905" fill="white" transform="translate(651 473.989) rotate(-14.2054)"/>
</clipPath>
<clipPath id="clip4_325_199">
<rect width="150.661" height="150.661" fill="white" transform="translate(244.973 399.022) rotate(-21.2374)"/>
</clipPath>
<clipPath id="clip5_325_199">
<rect width="88.2188" height="97.931" fill="white" transform="translate(318 223.514) rotate(-14.1153)"/>
</clipPath>
<clipPath id="clip6_325_199">
<rect width="72" height="72" fill="white" transform="translate(502 58.8521) rotate(-13.536)"/>
</clipPath>
<clipPath id="clip7_325_199">
<rect width="61" height="75" fill="white" transform="translate(671.374 369) rotate(23.8903)"/>
</clipPath>
<clipPath id="clip8_325_199">
<rect width="86" height="86" fill="white" transform="translate(211 54)"/>
</clipPath>
</defs>
</svg>
