<svg width="26" height="25" viewBox="0 0 26 25" fill="none" xmlns="http://www.w3.org/2000/svg">
<path d="M0.5 9.04762C0.5 5.88065 0.5 4.29717 1.11633 3.08755C1.65847 2.02354 2.52354 1.15847 3.58755 0.616332C4.79717 0 6.38066 0 9.54762 0H16.4524C19.6193 0 21.2028 0 22.4124 0.616332C23.4765 1.15847 24.3415 2.02354 24.8837 3.08755C25.5 4.29717 25.5 5.88066 25.5 9.04762V15.9524C25.5 19.1193 25.5 20.7028 24.8837 21.9124C24.3415 22.9765 23.4765 23.8415 22.4124 24.3837C21.2028 25 19.6193 25 16.4524 25H9.54762C6.38065 25 4.79717 25 3.58755 24.3837C2.52354 23.8415 1.65847 22.9765 1.11633 21.9124C0.5 20.7028 0.5 19.1193 0.5 15.9524V9.04762Z" fill="#B30B00"/>
<path d="M20.1787 14.1942C19.0114 12.9142 15.8304 13.4742 15.0619 13.5542C13.9725 12.4342 13.204 11.1642 12.8927 10.6842C13.2818 9.48423 13.5931 8.13423 13.5931 6.85423C13.5931 5.65423 13.1261 4.46423 11.8907 4.46423C11.4238 4.46423 11.0347 4.70423 10.8012 5.10423C10.2565 6.06423 10.49 7.97423 11.346 9.96423C10.8791 11.4042 10.1009 13.5542 9.17673 15.2242C7.9316 15.7042 5.21759 16.9742 4.98413 18.4142C4.9063 18.8142 5.06195 19.2942 5.37323 19.5342C5.68451 19.8542 6.07362 19.9342 6.46273 19.9342C8.08724 19.9342 9.72148 17.6242 10.8888 15.5442C11.8226 15.2242 13.2915 14.7442 14.7701 14.5042C16.4725 16.1042 18.0289 16.3342 18.8071 16.3342C19.8966 16.3342 20.2857 15.8542 20.4316 15.4542C20.6359 15.0742 20.49 14.5142 20.1787 14.1942ZM19.0892 14.9942C19.0114 15.3142 18.6223 15.6342 17.9219 15.4742C17.0658 15.2342 16.2974 14.8342 15.6748 14.2742C16.2195 14.1942 17.5328 14.0342 18.4666 14.1942C18.7779 14.2742 19.167 14.5142 19.0892 14.9942ZM11.56 5.42423C11.6378 5.26423 11.7935 5.18423 11.9491 5.18423C12.3382 5.18423 12.416 5.66423 12.416 6.06423C12.3382 7.02423 12.1826 8.05423 11.8713 8.93423C11.2487 7.18423 11.3265 5.90423 11.56 5.42423ZM11.4822 14.4342C11.8713 13.7142 12.3382 12.3642 12.4939 11.8842C12.883 12.6042 13.5833 13.4042 13.8946 13.7942C13.9725 13.7242 12.5717 14.0342 11.4822 14.4342ZM8.84599 16.2742C7.76623 18.0242 6.75455 19.1442 6.13199 19.1442C6.05416 19.1442 5.89852 19.1442 5.8207 19.0642C5.74288 18.9042 5.66506 18.7442 5.74288 18.5842C5.8207 17.9442 7.06584 17.0642 8.84599 16.2742Z" fill="white"/>
</svg>
