<svg width="28" height="27" viewBox="0 0 28 27" fill="none" xmlns="http://www.w3.org/2000/svg">
<path fill-rule="evenodd" clip-rule="evenodd" d="M14 0C6.265 0 0 6.19406 0 13.8415C0 19.9663 4.0075 25.1396 9.5725 26.9736C10.2725 27.0947 10.535 26.6794 10.535 26.3161C10.535 25.9874 10.5175 24.8973 10.5175 23.7381C7 24.3783 6.09 22.8903 5.81 22.1117C5.6525 21.7138 4.97 20.4854 4.375 20.1566C3.885 19.8971 3.185 19.2569 4.3575 19.2396C5.46 19.2223 6.2475 20.2431 6.51 20.6584C7.77 22.7519 9.7825 22.1636 10.5875 21.8003C10.71 20.9006 11.0775 20.295 11.48 19.949C8.365 19.603 5.11 18.4091 5.11 13.1148C5.11 11.6095 5.6525 10.3638 6.545 9.3949C6.405 9.04886 5.915 7.63011 6.685 5.72691C6.685 5.72691 7.8575 5.36357 10.535 7.14566C11.655 6.83422 12.845 6.67851 14.035 6.67851C15.225 6.67851 16.415 6.83422 17.535 7.14566C20.2125 5.34627 21.385 5.72691 21.385 5.72691C22.155 7.63011 21.665 9.04886 21.525 9.3949C22.4175 10.3638 22.96 11.5922 22.96 13.1148C22.96 18.4265 19.6875 19.603 16.5725 19.949C17.08 20.3816 17.5175 21.212 17.5175 22.5097C17.5175 24.361 17.5 25.8489 17.5 26.3161C17.5 26.6794 17.7625 27.112 18.4625 26.9736C21.2417 26.0459 23.6567 24.2799 25.3676 21.9242C27.0785 19.5684 27.9992 16.7416 28 13.8415C28 6.19406 21.735 0 14 0Z" fill="white"/>
</svg>
