<svg width="28" height="28" viewBox="0 0 28 28" fill="none" xmlns="http://www.w3.org/2000/svg">
<rect width="27.125" height="27.125" rx="13.5625" fill="#1275B1"/>
<path d="M10.2867 7.45177C10.2867 8.35711 9.502 9.09104 8.53399 9.09104C7.56598 9.09104 6.78125 8.35711 6.78125 7.45177C6.78125 6.54643 7.56598 5.8125 8.53399 5.8125C9.502 5.8125 10.2867 6.54643 10.2867 7.45177Z" fill="white"/>
<path d="M7.02094 10.296H10.0171V19.375H7.02094V10.296Z" fill="white"/>
<path d="M14.8409 10.296H11.8447V19.375H14.8409C14.8409 19.375 14.8409 16.5168 14.8409 14.7297C14.8409 13.6571 15.2071 12.5797 16.6685 12.5797C18.32 12.5797 18.3101 13.9835 18.3024 15.0709C18.2923 16.4924 18.3164 17.943 18.3164 19.375H21.3125V14.5833C21.2871 11.5236 20.4899 10.1138 17.8669 10.1138C16.3093 10.1138 15.3438 10.821 14.8409 11.4608V10.296Z" fill="white"/>
</svg>
