<svg width="32" height="27" viewBox="0 0 32 27" fill="none" xmlns="http://www.w3.org/2000/svg">
<path d="M10.0443 27C6.34713 27 2.90077 25.8955 0 23.9896C2.46285 24.1533 6.80922 23.7613 9.51266 21.1126C5.4458 20.9209 3.61173 17.717 3.3725 16.3479C3.71805 16.4848 5.36606 16.6491 6.29639 16.2657C1.61817 15.0609 0.900489 10.8438 1.05997 9.5568C1.93714 10.1866 3.42566 10.4057 4.01044 10.3509C-0.348808 7.14706 1.21946 2.32759 1.9903 1.28702C5.11866 5.73887 9.80709 8.23919 15.6073 8.37827C15.4979 7.88559 15.4402 7.37267 15.4402 6.84584C15.4402 3.06499 18.4153 0 22.0854 0C24.0029 0 25.7308 0.836711 26.9437 2.17507C28.225 1.86665 30.1535 1.14464 31.0963 0.520284C30.6211 2.27282 29.1416 3.73479 28.2467 4.27666C28.2542 4.29509 28.2395 4.25814 28.2467 4.27666C29.0328 4.15452 31.1598 3.73465 32 3.14909C31.5845 4.13364 30.016 5.77064 28.7288 6.6871C28.9683 17.536 20.8874 27 10.0443 27Z" fill="#47ACDF"/>
</svg>
