<svg width="29" height="32" viewBox="0 0 29 32" fill="none" xmlns="http://www.w3.org/2000/svg">
<path d="M25.84 3.12008e-05H2.88003C2.50133 -0.00173433 2.12603 0.0715538 1.77582 0.215662C1.4256 0.35977 1.10741 0.571842 0.839627 0.839627C0.571842 1.10741 0.35977 1.4256 0.215662 1.77582C0.0715538 2.12603 -0.00173438 2.50133 3.11557e-05 2.88003V29.1214C-0.00155776 29.5 0.0718608 29.8751 0.216048 30.2252C0.360235 30.5752 0.572335 30.8933 0.840103 31.1609C1.10787 31.4285 1.426 31.6405 1.77613 31.7845C2.12625 31.9286 2.50144 32.0018 2.88003 32H25.84C26.2185 32.0016 26.5936 31.9282 26.9435 31.7841C27.2935 31.64 27.6115 31.4281 27.8791 31.1604C28.1467 30.8928 28.3587 30.5748 28.5028 30.2249C28.6469 29.8749 28.7203 29.4998 28.7187 29.1214V2.88003C28.7206 2.50139 28.6475 2.12613 28.5036 1.77592C28.3596 1.42571 28.1476 1.10751 27.88 0.839706C27.6123 0.571903 27.2942 0.35981 26.944 0.215686C26.5939 0.0715612 26.2187 -0.00173573 25.84 3.12008e-05V3.12008e-05ZM27.12 29.1214C27.12 29.84 26.5587 30.4014 25.84 30.4014H2.88003C2.71134 30.4035 2.54393 30.3719 2.38767 30.3083C2.2314 30.2447 2.08944 30.1505 1.97015 30.0312C1.85086 29.912 1.75665 29.77 1.69309 29.6137C1.62952 29.4575 1.59788 29.2901 1.60003 29.1214V2.88003C1.60003 2.16003 2.16003 1.5987 2.88003 1.5987H25.84C26.0087 1.59691 26.1761 1.62884 26.3323 1.69262C26.4885 1.7564 26.6304 1.85073 26.7496 1.97009C26.8688 2.08945 26.963 2.23142 27.0266 2.38768C27.0902 2.54394 27.122 2.71133 27.12 2.88003V29.1214ZM7.20003 27.1987L10.8 24L7.20003 20.8V27.1987ZM20.16 14.24C19.5214 13.6 18.3214 12.8 16.3214 12.8C14.16 12.8 11.92 13.3614 10.3214 13.92V4.80003H7.12136V18.64L9.36137 17.6C9.36137 17.6 13.0414 15.92 16.2414 15.92C17.8414 15.92 18.2414 16.8 18.2414 17.6V27.2H21.4414V17.6C21.52 17.3614 21.52 15.5987 20.16 14.24V14.24ZM15.92 10H19.12C20.56 8.32003 21.28 6.6387 21.52 4.80003H18.3214C18 6.6387 17.2 8.32003 15.92 10Z" fill="white"/>
</svg>
