<svg width="408" height="418" viewBox="0 0 408 418" fill="none" xmlns="http://www.w3.org/2000/svg">
<path d="M364.286 0H43.7143C19.5804 0 0 20.0603 0 44.7857V373.214C0 397.94 19.5804 418 43.7143 418H364.286C388.42 418 408 397.94 408 373.214V44.7857C408 20.0603 388.42 0 364.286 0ZM222.032 326.003C222.032 366.683 198.718 385.25 164.748 385.25C134.057 385.25 116.298 369.016 107.191 349.329L138.429 330.015C144.439 340.931 149.904 350.168 163.109 350.168C175.677 350.168 183.691 345.13 183.691 325.443V191.925H222.032V326.003V326.003ZM312.739 385.25C277.13 385.25 254.089 367.896 242.888 345.13L274.125 326.656C282.321 340.371 293.068 350.542 311.92 350.542C327.766 350.542 337.966 342.424 337.966 331.134C337.966 317.699 327.584 312.94 310.007 305.009L300.445 300.811C272.759 288.775 254.454 273.566 254.454 241.563C254.454 212.079 276.402 189.686 310.554 189.686C334.961 189.686 352.446 198.363 365.014 221.129L335.143 240.723C328.586 228.687 321.482 223.929 310.462 223.929C299.261 223.929 292.157 231.206 292.157 240.723C292.157 252.479 299.261 257.238 315.745 264.609L325.307 268.808C357.911 283.083 376.216 297.732 376.216 330.575C376.216 365.843 349.077 385.25 312.739 385.25V385.25Z" fill="white" fill-opacity="0.85"/>
</svg>
