<svg width="44" height="32" viewBox="0 0 44 32" fill="none" xmlns="http://www.w3.org/2000/svg">
<path d="M8.83971 25.7724C7.58689 25.7724 6.4482 24.738 6.4482 23.4769C6.4482 22.2158 7.47137 21.1744 8.83971 21.1744C10.2149 21.1744 11.2477 22.2102 11.2477 23.4769C11.2477 24.738 10.1022 25.7724 8.84797 25.7724H8.83971ZM38.1993 13.238C37.9476 11.3985 36.8241 9.89963 35.3402 8.75533L34.7613 8.29233L34.2951 8.86378C33.3929 9.89963 33.0285 11.7391 33.1413 13.1142C33.2499 14.1584 33.5772 15.1929 34.1589 15.9965C33.6858 16.2426 33.1137 16.4595 32.6682 16.6987C31.623 17.0449 30.6053 17.1617 29.5891 17.1617H0.179945L0.0644269 17.8416C-0.158019 20.0844 0.197794 22.3473 1.09722 24.4098L1.54829 25.2149V25.3219C4.29873 29.9283 9.1904 32 14.5263 32C24.784 32 33.1921 27.5174 37.1803 17.8499C39.7946 17.9653 42.4322 17.2771 43.6699 14.7424L44 14.1709L43.4554 13.8219C41.966 12.9029 39.9307 12.7805 38.2282 13.2435L38.1911 13.2505L38.1993 13.238ZM23.5161 11.3985H19.0617V15.8867H23.5161V11.3985ZM23.5161 5.75764H19.0617V10.2458H23.5161V5.75764ZM23.5161 0H19.0617V4.48959H23.5161V0ZM28.9592 11.3985H24.5324V15.8867H28.973V11.3985H28.9592ZM12.4648 11.3985H8.03796V15.8867H12.4786V11.3985H12.4648ZM18.0152 11.3985H13.6186V15.8867H18.0454V11.3985H18.0152ZM6.96391 11.3985H2.56458V15.8867H7.0203V11.3985H6.96391ZM18.0152 5.75764H13.6186V10.2458H18.0454V5.7632L18.0152 5.75764ZM12.4345 5.75764H8.04484V10.2458H12.4717V5.7632L12.4428 5.75764H12.4345Z" fill="white"/>
</svg>
