<svg width="526" height="303" viewBox="0 0 526 303" fill="none" xmlns="http://www.w3.org/2000/svg">
<path d="M526 294.854C518.345 297.728 509.894 297.722 502.243 294.836C494.592 291.95 488.269 286.384 484.468 279.188L408.855 175.38L397.897 160.867L310.165 279.318C306.592 286.212 300.612 291.579 293.344 294.414C286.075 297.249 278.015 297.359 270.671 294.723L383.717 144.157L278.561 8.1463C286.122 5.44121 294.391 5.40535 301.976 8.04475C309.561 10.6841 315.997 15.8376 320.203 22.6372L398.577 127.729L477.389 23.0724C480.989 16.301 486.97 11.079 494.195 8.39932C501.42 5.71959 509.385 5.76893 516.576 8.53795L475.767 62.3024L420.493 133.734C418.958 135.094 417.73 136.76 416.889 138.624C416.048 140.487 415.613 142.506 415.613 144.548C415.613 146.59 416.048 148.609 416.889 150.473C417.73 152.337 418.958 154.003 420.493 155.362L525.781 294.875L526 294.854ZM0.0440962 142.285L9.24909 97.1372C34.5409 7.86346 137.637 -29.2777 208.559 25.988C250.091 58.3859 260.458 104.252 258.42 155.95H24.4593C20.6677 248.269 87.7765 304.014 173.58 275.532C187.49 270.562 199.94 262.243 209.816 251.322C219.692 240.401 226.685 227.219 230.169 212.956C234.706 198.465 242.179 195.985 255.899 200.162C253.613 217.838 247.319 234.769 237.491 249.682C227.663 264.595 214.556 277.101 199.157 286.259C173.721 300.072 144.537 305.547 115.778 301.901C87.0186 298.254 60.1571 285.674 39.0338 265.959C18.1479 242.621 5.52493 213.141 3.09051 182.016C3.09051 176.903 1.33718 172.116 0.15368 167.525C0.0469899 159.119 -0.00415007 150.713 0.000262918 142.307L0.0440962 142.285ZM24.7442 136.063H236.328C235.013 69.1344 192.472 21.6581 135.73 21.223C72.5663 20.3526 27.3742 66.7846 24.5908 135.758L24.7442 136.063Z" fill="white" fill-opacity="0.85"/>
</svg>
