<svg width="204" height="204" viewBox="0 0 204 204" fill="none" xmlns="http://www.w3.org/2000/svg">
<rect width="204" height="204" fill="white"/>
<path d="M42.5157 111.596C40.5417 111.596 38.8583 111.196 37.4656 110.395C36.0838 109.595 35.031 108.542 34.3071 107.237C33.5833 105.921 33.2214 104.501 33.2214 102.976V102.368C33.2214 100.668 33.5395 99.1217 34.1755 97.7289C34.8116 96.3252 35.7712 95.212 37.0543 94.3895C38.3374 93.5561 39.9495 93.1393 41.8906 93.1393C43.6124 93.1393 45.082 93.4957 46.2993 94.2086C47.5166 94.9104 48.4487 95.9194 49.0958 97.2354C49.7538 98.5404 50.0828 100.103 50.0828 101.924V104.408H35.4422V100.608H44.2923V100.131C44.3033 99.6152 44.2156 99.1929 44.0291 98.8639C43.8427 98.5349 43.5631 98.2937 43.1902 98.1401C42.8283 97.9866 42.3787 97.9098 41.8413 97.9098C41.0736 97.9098 40.4979 98.1237 40.114 98.5514C39.7302 98.9791 39.4725 99.5329 39.3409 100.213C39.2093 100.882 39.1435 101.6 39.1435 102.368V102.976C39.1435 103.766 39.2915 104.451 39.5876 105.033C39.8837 105.603 40.3114 106.042 40.8707 106.349C41.441 106.656 42.1209 106.809 42.9105 106.809C43.6343 106.809 44.3581 106.683 45.0819 106.431C45.8167 106.179 46.4363 105.735 46.9408 105.099L49.6057 108.504C49.0574 109.271 48.1691 109.979 46.9408 110.626C45.7235 111.273 44.2485 111.596 42.5157 111.596V111.596Z" fill="#212322"/>
<path d="M57.9787 111.267H52.0566V93.4683H57.6003L57.9787 97.2683V111.267ZM55.9224 101.94C55.9115 100.054 56.1911 98.4582 56.7614 97.1531C57.3316 95.8371 58.1322 94.8392 59.1631 94.1592C60.2049 93.4793 61.4113 93.1393 62.7821 93.1393C63.8788 93.1393 64.8439 93.3587 65.6773 93.7973C66.5108 94.236 67.1633 94.9653 67.6349 95.9852C68.1174 97.0051 68.3587 98.3979 68.3587 100.164V111.267H62.4038V100.147C62.4038 99.511 62.3105 99.0339 62.1241 98.7159C61.9486 98.3979 61.6854 98.184 61.3345 98.0743C60.9945 97.9647 60.5723 97.9098 60.0678 97.9098C59.5414 97.9098 59.0973 98.0031 58.7354 98.1895C58.3844 98.365 58.0993 98.6282 57.88 98.9791C57.6716 99.3191 57.5181 99.7303 57.4194 100.213C57.3316 100.695 57.2878 101.233 57.2878 101.825L55.9224 101.94Z" fill="#212322"/>
<path d="M86.0591 111.267H72.241V106.497H86.0591V111.267ZM74.9059 111.267H70.8428V107.895L81.8643 93.4684H85.944V96.7419L74.9059 111.267ZM84.0193 98.2389H71.1718V93.4684H84.0193V98.2389Z" fill="#212322"/>
<path d="M87.6875 102.22C87.6875 100.476 88.0165 98.9243 88.6745 97.5644C89.3325 96.1935 90.3031 95.1133 91.5862 94.3237C92.8693 93.5341 94.4485 93.1393 96.3238 93.1393C98.221 93.1393 99.8112 93.5341 101.094 94.3237C102.388 95.1133 103.359 96.1935 104.006 97.5644C104.664 98.9243 104.993 100.476 104.993 102.22V102.532C104.993 104.265 104.664 105.817 104.006 107.188C103.359 108.559 102.394 109.639 101.111 110.428C99.8277 111.207 98.243 111.596 96.3567 111.596C94.4704 111.596 92.8802 111.207 91.5862 110.428C90.3031 109.639 89.3325 108.559 88.6745 107.188C88.0165 105.817 87.6875 104.265 87.6875 102.532V102.22ZM93.626 102.532C93.626 103.344 93.6973 104.079 93.8398 104.737C93.9934 105.384 94.2675 105.894 94.6623 106.266C95.0571 106.639 95.6219 106.826 96.3567 106.826C97.0805 106.826 97.6398 106.639 98.0346 106.266C98.4294 105.894 98.6981 105.384 98.8407 104.737C98.9942 104.079 99.071 103.344 99.071 102.532V102.22C99.071 101.43 98.9942 100.712 98.8407 100.065C98.6981 99.4068 98.4294 98.8859 98.0346 98.502C97.6398 98.1072 97.0695 97.9098 96.3238 97.9098C95.6 97.9098 95.0407 98.1072 94.6459 98.502C94.262 98.8859 93.9934 99.4068 93.8398 100.065C93.6973 100.712 93.626 101.43 93.626 102.22V102.532Z" fill="#212322"/>
<path d="M113.531 111.267H107.592V86H113.531V111.267Z" fill="#212322"/>
<path d="M122.99 111.267H117.051V93.4683H122.99V111.267ZM116.722 88.961C116.722 88.0837 117.024 87.3708 117.627 86.8225C118.23 86.2742 119.014 86 119.979 86C120.955 86 121.739 86.2742 122.332 86.8225C122.935 87.3708 123.236 88.0837 123.236 88.961C123.236 89.8274 122.935 90.5402 122.332 91.0995C121.739 91.6479 120.955 91.922 119.979 91.922C119.014 91.922 118.23 91.6479 117.627 91.0995C117.024 90.5402 116.722 89.8274 116.722 88.961Z" fill="#212322"/>
<path d="M132.202 111.267H126.263V93.4683H131.823L132.202 97.2683V111.267ZM130.145 101.94C130.134 100.229 130.387 98.7159 130.902 97.3999C131.418 96.0729 132.185 95.0311 133.205 94.2744C134.236 93.5177 135.503 93.1393 137.005 93.1393C138.54 93.1393 139.785 93.6273 140.739 94.6034C141.693 95.5684 142.17 97.1641 142.17 99.3903V111.267H136.232V100.229C136.232 99.5494 136.155 99.0449 136.002 98.7159C135.859 98.3869 135.645 98.173 135.36 98.0743C135.075 97.9647 134.724 97.9098 134.307 97.9098C133.869 97.9098 133.474 98.0031 133.123 98.1895C132.772 98.365 132.47 98.6282 132.218 98.9791C131.977 99.3191 131.79 99.7303 131.659 100.213C131.538 100.695 131.478 101.233 131.478 101.825L130.145 101.94ZM139.867 102.154C139.856 100.388 140.098 98.831 140.591 97.4821C141.085 96.1223 141.83 95.0585 142.828 94.2908C143.837 93.5231 145.093 93.1393 146.596 93.1393C147.681 93.1393 148.641 93.3587 149.474 93.7973C150.308 94.225 150.96 94.9543 151.432 95.9852C151.914 97.0051 152.156 98.3979 152.156 100.164V111.267H146.201V100.164C146.201 99.5165 146.124 99.0339 145.97 98.7159C145.817 98.3979 145.598 98.184 145.312 98.0743C145.038 97.9647 144.698 97.9098 144.292 97.9098C143.81 97.9098 143.393 98.014 143.042 98.2224C142.691 98.4198 142.401 98.7104 142.17 99.0942C141.94 99.4671 141.765 99.9168 141.644 100.443C141.534 100.97 141.48 101.551 141.48 102.187L139.867 102.154Z" fill="#212322"/>
<path d="M164.213 99.5713C164.213 98.9133 164.071 98.3924 163.786 98.0085C163.511 97.6137 163.034 97.4163 162.354 97.4163C161.993 97.4163 161.685 97.4712 161.433 97.5808C161.192 97.6905 161.006 97.866 160.874 98.1072C160.753 98.3485 160.693 98.672 160.693 99.0778H154.771C154.771 97.9153 155.094 96.8899 155.742 96.0016C156.389 95.1133 157.304 94.4169 158.489 93.9125C159.673 93.397 161.066 93.1393 162.667 93.1393C164.093 93.1393 165.37 93.3806 166.5 93.8631C167.629 94.3347 168.523 95.053 169.181 96.0181C169.839 96.9722 170.168 98.1676 170.168 99.6042V106.628C170.168 107.911 170.234 108.844 170.366 109.425C170.508 110.006 170.7 110.522 170.941 110.971V111.267H165.019C164.745 110.686 164.542 109.973 164.411 109.129C164.279 108.284 164.213 107.402 164.213 106.48V99.5713ZM164.954 103.552H162.667C161.735 103.552 161.104 103.804 160.775 104.309C160.446 104.813 160.282 105.345 160.282 105.905C160.282 106.31 160.43 106.639 160.726 106.892C161.033 107.133 161.411 107.253 161.861 107.253C162.42 107.253 162.892 107.155 163.276 106.957C163.67 106.749 163.967 106.508 164.164 106.234C164.361 105.959 164.444 105.718 164.411 105.51L165.677 107.994C165.458 108.421 165.211 108.849 164.937 109.277C164.674 109.694 164.345 110.077 163.95 110.428C163.555 110.779 163.073 111.059 162.502 111.267C161.932 111.487 161.241 111.596 160.43 111.596C159.344 111.596 158.335 111.371 157.403 110.922C156.482 110.472 155.742 109.842 155.182 109.03C154.623 108.219 154.343 107.275 154.343 106.201C154.343 104.369 155.018 102.933 156.367 101.891C157.716 100.849 159.832 100.328 162.716 100.328H164.921L164.954 103.552Z" fill="#212322"/>
<path d="M33 116.223H170.997V121.045H33V116.223Z" fill="url(#paint0_linear_20_9)"/>
<defs>
<linearGradient id="paint0_linear_20_9" x1="32.9347" y1="118.542" x2="170.61" y2="115.363" gradientUnits="userSpaceOnUse">
<stop stop-color="#9B26B5"/>
<stop offset="0.363216" stop-color="#00AFD7"/>
<stop offset="0.662842" stop-color="#E73589"/>
<stop offset="1" stop-color="#FFC501"/>
</linearGradient>
</defs>
</svg>
