<svg width="500" height="500" viewBox="0 0 500 500" fill="none" xmlns="http://www.w3.org/2000/svg">
<rect width="500" height="500" fill="#0D1117"/>
<g clip-path="url(#clip0_117_25)">
<path d="M159.316 272.608C167.463 272.608 174.033 268.036 176.318 260.725H165.187C164.112 262.599 161.93 263.729 159.316 263.729C155.783 263.729 153.418 261.83 152.689 258.154H176.798C176.944 257.162 177.03 256.198 177.03 255.231C177.03 245.831 169.783 238.46 159.316 238.46C149.124 238.46 141.677 245.687 141.677 255.51C141.677 265.299 149.184 272.608 159.316 272.608V272.608ZM166.012 252.04H152.883C153.789 248.858 156.054 247.111 159.316 247.111C162.69 247.111 165.029 248.838 166.012 252.043V252.04ZM197.28 272.605C201.05 272.605 204.421 271.382 207.078 269.257L208.037 271.523H216.684V239.478H208.346L207.203 241.958C204.518 239.774 201.105 238.514 197.28 238.514C187.35 238.514 180.252 245.574 180.252 255.499C180.252 265.457 187.35 272.608 197.28 272.608V272.605ZM198.777 262.833C194.586 262.833 191.507 259.71 191.507 255.524C191.507 251.367 194.56 248.244 198.777 248.244C202.964 248.244 206.044 251.367 206.044 255.524C206.044 259.71 202.964 262.833 198.777 262.833ZM236.263 272.605C244.89 272.605 250.617 268.225 250.617 261.528C250.617 253.402 243.798 252.35 238.668 251.451C235.583 250.907 233.098 250.482 233.098 248.661C233.098 247.175 234.303 246.299 236.097 246.299C238.125 246.299 239.517 247.249 239.517 249.295H249.991C249.866 242.804 244.507 238.463 236.234 238.463C227.916 238.463 222.369 242.606 222.369 249.033C222.369 256.804 229.044 258.303 234.081 259.107C237.2 259.617 239.656 260.144 239.656 261.993C239.656 263.648 238.105 264.473 236.469 264.473C234.349 264.473 232.698 263.394 232.698 261.052H221.929C222.032 267.994 227.411 272.608 236.263 272.608V272.605ZM259.401 283.479C267.788 283.479 271.81 279.936 276.189 270.13L289.797 239.512H277.783L271.358 257.165L264.468 239.512H252.314L265.734 268.91C264.22 272.895 262.926 273.995 258.65 273.995H255.57V283.479H259.401ZM312.258 272.605C322.256 272.605 329.32 265.516 329.32 255.558C329.32 245.6 322.259 238.511 312.258 238.511C309.412 238.489 306.616 239.255 304.189 240.721V227.941H293.134V271.557H301.409L302.466 269.178C305.103 271.351 308.471 272.605 312.258 272.605ZM310.764 262.833C306.574 262.833 303.494 259.71 303.494 255.561C303.494 251.372 306.574 248.249 310.764 248.249C314.952 248.249 318.031 251.372 318.031 255.558C318.031 259.71 314.926 262.83 310.764 262.83V262.833ZM349.608 272.605C353.378 272.605 356.749 271.382 359.405 269.257L360.365 271.523H369.012V239.478H360.677L359.531 241.958C356.849 239.774 353.432 238.514 349.608 238.514C339.678 238.514 332.583 245.574 332.583 255.499C332.583 265.457 339.678 272.608 349.608 272.608V272.605ZM351.104 262.833C346.914 262.833 343.834 259.71 343.834 255.524C343.834 251.367 346.891 248.244 351.104 248.244C355.295 248.244 358.374 251.367 358.374 255.524C358.374 259.71 355.295 262.833 351.104 262.833ZM387.248 271.557V254.445C387.248 250.366 389.253 247.962 392.741 247.962C395.558 247.962 396.978 249.814 396.978 253.543V271.554H408.161V252.021C408.161 243.855 403.211 238.567 395.669 238.567C391.47 238.567 387.862 240.16 385.443 242.818L383.909 239.514H376.062V271.559H387.248V271.557ZM426.52 271.557V258.005L434.655 271.557H447.841L436.695 254.786L446.816 239.512H434.255L426.52 252.066V227.941H415.334V271.557H426.52V271.557Z" fill="white"/>
<path fill-rule="evenodd" clip-rule="evenodd" d="M82.3269 227.941L51.4706 283.479H68.5698L99.429 227.941H82.3269Z" fill="url(#paint0_linear_117_25)"/>
<path opacity="0.5" fill-rule="evenodd" clip-rule="evenodd" d="M103.377 227.941L72.5175 283.479H89.6168L120.476 227.941H103.377Z" fill="url(#paint1_linear_117_25)"/>
<path opacity="0.15" fill-rule="evenodd" clip-rule="evenodd" d="M124.424 227.941L93.5674 283.479H110.667L141.523 227.941H124.424Z" fill="url(#paint2_linear_117_25)"/>
</g>
<defs>
<linearGradient id="paint0_linear_117_25" x1="86.0942" y1="227.941" x2="53.4797" y2="279.435" gradientUnits="userSpaceOnUse">
<stop stop-color="#33D35E"/>
<stop offset="1" stop-color="#2AB6D9"/>
</linearGradient>
<linearGradient id="paint1_linear_117_25" x1="107.141" y1="227.941" x2="74.5267" y2="279.435" gradientUnits="userSpaceOnUse">
<stop stop-color="#33D35E"/>
<stop offset="1" stop-color="#2AB6D9"/>
</linearGradient>
<linearGradient id="paint2_linear_117_25" x1="128.189" y1="227.941" x2="95.5736" y2="279.434" gradientUnits="userSpaceOnUse">
<stop stop-color="#33D35E"/>
<stop offset="1" stop-color="#2AB6D9"/>
</linearGradient>
<clipPath id="clip0_117_25">
<rect width="397.059" height="56.3725" fill="white" transform="translate(51.4706 227.941)"/>
</clipPath>
</defs>
</svg>
