<svg width="500" height="500" viewBox="0 0 500 500" fill="none" xmlns="http://www.w3.org/2000/svg">
<rect width="500" height="500" fill="white"/>
<path d="M316.899 271.869C324.713 206.229 297.363 164.422 281.734 152.7C281.734 152.7 303.595 147.623 318.852 146.84C332.527 146.137 344.249 144.886 357.924 148.793C371.599 152.7 385.274 170.283 393.089 219.122C436.068 209.354 467.325 207.401 481 217.169C467.325 238.658 396.996 271.869 316.899 271.869Z" fill="#55ACEE"/>
<path fill-rule="evenodd" clip-rule="evenodd" d="M287.595 338.291C293.456 331.779 306.349 314.848 311.038 299.219C399.171 262.204 406.194 293.574 412.465 321.584C413.144 324.618 413.814 327.613 414.578 330.477C397.647 345.454 353.235 367.595 311.038 336.338L287.595 338.291ZM324.713 320.709L383.321 303.127C386.577 312.243 386.837 331.649 361.831 336.338C336.825 341.026 326.667 327.872 324.713 320.709Z" fill="#55ACEE"/>
<path d="M170.38 117.047C96.7493 117.047 37.0474 176.749 37.0474 250.38C37.0474 324.01 96.7493 383.712 170.38 383.712C244.01 383.712 303.712 324.01 303.712 250.38C303.712 176.749 244.01 117.047 170.38 117.047ZM234.457 217.553C234.546 218.951 234.546 220.41 234.546 221.838C234.546 265.528 201.272 315.855 140.469 315.855C121.719 315.855 104.339 310.409 89.6958 301.034C92.3743 301.332 94.9338 301.451 97.6719 301.451C113.148 301.451 127.374 296.213 138.713 287.344C124.19 287.046 111.987 277.522 107.821 264.427C112.91 265.171 117.493 265.171 122.731 263.832C115.253 262.313 108.531 258.251 103.708 252.338C98.8849 246.424 96.2578 239.023 96.2731 231.392V230.975C100.648 233.445 105.797 234.963 111.184 235.172C106.655 232.154 102.941 228.065 100.372 223.268C97.8018 218.471 96.4553 213.114 96.4517 207.672C96.4517 201.511 98.0588 195.886 100.946 191.005C109.246 201.224 119.604 209.581 131.346 215.534C143.088 221.487 155.951 224.902 169.1 225.559C164.427 203.088 181.213 184.904 201.391 184.904C210.915 184.904 219.486 188.892 225.528 195.321C232.998 193.922 240.141 191.124 246.51 187.374C244.04 195.023 238.861 201.481 231.986 205.559C238.653 204.844 245.081 202.999 251.034 200.41C246.54 207.017 240.915 212.88 234.457 217.553V217.553Z" fill="#55ACEE"/>
</svg>
