<svg width="500" height="500" viewBox="0 0 500 500" fill="none" xmlns="http://www.w3.org/2000/svg">
<rect width="500" height="500" fill="#0D1117"/>
<rect x="416.096" y="168.954" width="9.49225" height="68.9771" rx="4.74613" fill="#55ACEE"/>
<rect x="416.096" y="168.954" width="9.49225" height="68.9771" rx="4.74613" fill="#55ACEE"/>
<rect x="455.331" y="197.43" width="10.7579" height="67.7114" rx="5.37895" transform="rotate(90 455.331 197.43)" fill="#55ACEE"/>
<rect x="455.331" y="197.43" width="10.7579" height="67.7114" rx="5.37895" transform="rotate(90 455.331 197.43)" fill="#55ACEE"/>
<path fill-rule="evenodd" clip-rule="evenodd" d="M328.148 211.055C329.804 211.251 331.489 211.352 333.197 211.352C356.614 211.352 375.596 192.37 375.596 168.953C375.596 145.537 356.614 126.555 333.197 126.555C316.652 126.555 302.32 136.032 295.334 149.854C310.642 167.179 322.04 188.04 328.148 211.055Z" fill="#55ACEE"/>
<path fill-rule="evenodd" clip-rule="evenodd" d="M279.333 365.682C312.27 337.938 333.197 296.39 333.197 249.954C333.197 243.091 332.74 236.335 331.855 229.714C332.302 229.707 332.749 229.704 333.197 229.704C381.777 229.704 421.159 269.192 421.159 317.903C421.159 366.614 381.777 370.822 333.197 370.822C312.904 370.822 294.216 370.088 279.333 365.682Z" fill="#55ACEE"/>
<path d="M181.875 112C105.736 112 44 173.736 44 249.875C44 326.014 105.736 387.75 181.875 387.75C258.014 387.75 319.75 326.014 319.75 249.875C319.75 173.736 258.014 112 181.875 112ZM248.135 215.929C248.227 217.376 248.227 218.884 248.227 220.361C248.227 265.54 213.82 317.581 150.945 317.581C131.557 317.581 113.584 311.95 98.4422 302.255C101.212 302.563 103.859 302.686 106.69 302.686C122.693 302.686 137.404 297.27 149.13 288.098C134.111 287.791 121.493 277.942 117.185 264.401C122.447 265.171 127.187 265.171 132.603 263.786C124.87 262.215 117.919 258.015 112.932 251.9C107.944 245.784 105.228 238.131 105.244 230.24V229.809C109.768 232.364 115.092 233.933 120.662 234.149C115.979 231.028 112.139 226.8 109.482 221.839C106.824 216.879 105.432 211.339 105.428 205.712C105.428 199.341 107.09 193.525 110.075 188.478C118.659 199.044 129.37 207.686 141.512 213.842C153.654 219.998 166.955 223.53 180.552 224.208C175.72 200.972 193.077 182.169 213.943 182.169C223.791 182.169 232.655 186.292 238.902 192.94C246.627 191.494 254.013 188.601 260.599 184.723C258.045 192.632 252.69 199.311 245.581 203.527C252.474 202.788 259.122 200.88 265.277 198.203C260.63 205.035 254.813 211.098 248.135 215.929Z" fill="#55ACEE"/>
</svg>
