<svg width="28" height="27" viewBox="0 0 28 27" fill="none" xmlns="http://www.w3.org/2000/svg">
<path fill-rule="evenodd" clip-rule="evenodd" d="M4.7444 25.396L1.64897 21.5398C0.904217 20.612 0.5 19.4711 0.5 18.2969V4.33349C0.5 2.57458 1.90723 1.11507 3.72264 0.991127L18.0789 0.0109645C19.1219 -0.0602439 20.1585 0.216981 21.0153 0.796233L26.0593 4.20652C26.9622 4.81697 27.5 5.81489 27.5 6.87983V22.7549C27.5 24.4762 26.1163 25.9014 24.3389 26.0108L8.405 26.9916C6.9866 27.0789 5.61559 26.4813 4.7444 25.396Z" fill="white"/>
<path d="M9.72332 11.3209V11.1381C9.72332 10.6747 10.0945 10.2903 10.5728 10.2584L14.057 10.0258L18.8754 17.1212V10.8938L17.6351 10.7284V10.6416C17.6351 10.1727 18.0148 9.78589 18.4992 9.76107L21.6695 9.59867V10.0549C21.6695 10.2691 21.5102 10.4523 21.2919 10.4892L20.529 10.6182V20.7033L19.5716 21.0326C18.7717 21.3077 17.8812 21.0132 17.4233 20.3223L12.7455 13.2635V20.0007L14.1853 20.2762L14.1652 20.4098C14.1024 20.8281 13.7412 21.1445 13.3043 21.164L9.72332 21.3233C9.67598 20.8735 10.0131 20.471 10.4782 20.4222L10.9493 20.3727V11.3897L9.72332 11.3209Z" fill="black"/>
<path fill-rule="evenodd" clip-rule="evenodd" d="M18.2074 1.77013L3.85116 2.75029C2.99123 2.809 2.32465 3.50035 2.32465 4.33351V18.2969C2.32465 19.0798 2.59412 19.8403 3.09063 20.4589L6.18605 24.3151C6.68653 24.9385 7.47413 25.2818 8.28895 25.2317L24.2228 24.2508C25.0395 24.2006 25.6752 23.5458 25.6752 22.7549V6.87986C25.6752 6.39056 25.4281 5.93206 25.0133 5.65158L19.9692 2.24129C19.4552 1.89374 18.8332 1.7274 18.2074 1.77013ZM4.56306 4.55132C4.36339 4.40349 4.45841 4.09552 4.70925 4.07753L18.304 3.10242C18.7372 3.07135 19.1676 3.19063 19.5179 3.43881L22.2456 5.37134C22.3491 5.44471 22.3005 5.60309 22.1723 5.61007L7.77552 6.39305C7.33983 6.41675 6.90977 6.28875 6.56335 6.03227L4.56306 4.55132ZM7.10025 8.84766C7.10025 8.37995 7.47811 7.99361 7.96128 7.9673L23.1828 7.13833C23.6537 7.11269 24.0501 7.47483 24.0501 7.93066V21.6768C24.0501 22.1436 23.6736 22.5296 23.1914 22.557L8.06623 23.4176C7.54217 23.4474 7.10025 23.0447 7.10025 22.5374V8.84766Z" fill="black"/>
</svg>
