<svg width="34" height="28" viewBox="0 0 34 28" fill="none" xmlns="http://www.w3.org/2000/svg">
<path d="M10.672 28C6.74383 28 3.08207 26.8545 0 24.8781C2.61678 25.0479 7.2348 24.6414 10.1072 21.8945C5.78617 21.6957 3.83746 18.3732 3.58328 16.9533C3.95043 17.0953 5.70144 17.2657 6.68991 16.8682C1.71931 15.6187 0.956769 11.2454 1.12622 9.91075C2.05821 10.5639 3.63977 10.7911 4.26109 10.7343C-0.370609 7.41176 1.29567 2.41379 2.11469 1.33469C5.43857 5.95142 10.42 8.54435 16.5827 8.68857C16.4666 8.17765 16.4052 7.64573 16.4052 7.09939C16.4052 3.17851 19.5663 0 23.4657 0C25.5031 0 27.3389 0.8677 28.6276 2.25563C29.9891 1.93578 32.0381 1.18704 33.0398 0.539554C32.5349 2.357 30.963 3.87312 30.0122 4.43505C30.0201 4.45417 30.0044 4.41585 30.0122 4.43505C30.8474 4.30839 33.1072 3.87297 34 3.26572C33.5585 4.28674 31.892 5.98437 30.5244 6.93478C30.7788 18.1855 22.1929 28 10.672 28Z" fill="#47ACDF"/>
</svg>
